<?xml version="1.0" encoding="UTF-8"?>
<!--Generator: Apple Native CoreSVG 341-->
<!DOCTYPE svg
PUBLIC "-//W3C//DTD SVG 1.1//EN"
       "http://www.w3.org/Graphics/SVG/1.1/DTD/svg11.dtd">
<svg version="1.1" xmlns="http://www.w3.org/2000/svg" xmlns:xlink="http://www.w3.org/1999/xlink" viewBox="0 0 3300 2200">
 <!--glyph: "", point size: 100.0, font version: "21.0d4e1", template writer version: "138.0.0"-->
 <style>.defaults {-sfsymbols-variable-value-mode:color;-sfsymbols-draw-reverses-motion-groups:true}

.monochrome-0 {-sfsymbols-motion-group:1;-sfsymbols-layer-tags:-4786b3a27d54043f 153f4ce2d975eb4 brain}
.monochrome-1 {opacity:0.0;-sfsymbols-clear-behind:true;-sfsymbols-motion-group:0;-sfsymbols-layer-tags:-4786b3a27d54043f _slash}
.monochrome-2 {-sfsymbols-motion-group:0;-sfsymbols-layer-tags:-4786b3a27d54043f _slash}

.multicolor-0:tintColor {-sfsymbols-motion-group:1;-sfsymbols-layer-tags:-4786b3a27d54043f 153f4ce2d975eb4 brain}
.multicolor-1:tintColor {opacity:0.0;-sfsymbols-clear-behind:true;-sfsymbols-motion-group:0;-sfsymbols-layer-tags:-4786b3a27d54043f _slash}
.multicolor-2:tintColor {-sfsymbols-motion-group:0;-sfsymbols-layer-tags:-4786b3a27d54043f _slash}

.hierarchical-0:secondary {-sfsymbols-motion-group:1;-sfsymbols-layer-tags:-4786b3a27d54043f 153f4ce2d975eb4 brain}
.hierarchical-1:primary {opacity:0.0;-sfsymbols-clear-behind:true;-sfsymbols-motion-group:0;-sfsymbols-layer-tags:-4786b3a27d54043f _slash}
.hierarchical-2:primary {-sfsymbols-motion-group:0;-sfsymbols-layer-tags:-4786b3a27d54043f _slash}

.SFSymbolsPreviewWireframe {fill:none;opacity:1.0;stroke:black;stroke-width:0.5}
</style>
 <g id="Notes">
  <rect height="2200" id="artboard" style="fill:white;opacity:1" width="3300" x="0" y="0"/>
  <line style="fill:none;stroke:black;opacity:1;stroke-width:0.5;" x1="263" x2="3036" y1="292" y2="292"/>
  <text style="stroke:none;fill:black;font-family:sans-serif;font-size:13;font-weight:bold;" transform="matrix(1 0 0 1 263 322)">Weight/Scale Variations</text>
  <text style="stroke:none;fill:black;font-family:sans-serif;font-size:13;text-anchor:middle;" transform="matrix(1 0 0 1 559.711 322)">Ultralight</text>
  <text style="stroke:none;fill:black;font-family:sans-serif;font-size:13;text-anchor:middle;" transform="matrix(1 0 0 1 856.422 322)">Thin</text>
  <text style="stroke:none;fill:black;font-family:sans-serif;font-size:13;text-anchor:middle;" transform="matrix(1 0 0 1 1153.13 322)">Light</text>
  <text style="stroke:none;fill:black;font-family:sans-serif;font-size:13;text-anchor:middle;" transform="matrix(1 0 0 1 1449.84 322)">Regular</text>
  <text style="stroke:none;fill:black;font-family:sans-serif;font-size:13;text-anchor:middle;" transform="matrix(1 0 0 1 1746.56 322)">Medium</text>
  <text style="stroke:none;fill:black;font-family:sans-serif;font-size:13;text-anchor:middle;" transform="matrix(1 0 0 1 2043.27 322)">Semibold</text>
  <text style="stroke:none;fill:black;font-family:sans-serif;font-size:13;text-anchor:middle;" transform="matrix(1 0 0 1 2339.98 322)">Bold</text>
  <text style="stroke:none;fill:black;font-family:sans-serif;font-size:13;text-anchor:middle;" transform="matrix(1 0 0 1 2636.69 322)">Heavy</text>
  <text style="stroke:none;fill:black;font-family:sans-serif;font-size:13;text-anchor:middle;" transform="matrix(1 0 0 1 2933.4 322)">Black</text>
  <line style="fill:none;stroke:black;opacity:1;stroke-width:0.5;" x1="263" x2="3036" y1="1903" y2="1903"/>
  <g transform="matrix(0.2 0 0 0.2 263 1933)">
   <path d="m46.2402 4.15039c21.7773 0 39.4531-17.627 39.4531-39.4043s-17.6758-39.4043-39.4531-39.4043c-21.7285 0-39.4043 17.627-39.4043 39.4043s17.6758 39.4043 39.4043 39.4043Zm0-7.42188c-17.6758 0-31.9336-14.3066-31.9336-31.9824s14.2578-31.9824 31.9336-31.9824 31.9824 14.3066 31.9824 31.9824-14.3066 31.9824-31.9824 31.9824Zm3.61328-17.7734v-28.4668c0-2.24609-1.46484-3.75977-3.71094-3.75977-2.14844 0-3.61328 1.51367-3.61328 3.75977v28.4668c0 2.19727 1.46484 3.71094 3.61328 3.71094 2.24609 0 3.71094-1.51367 3.71094-3.71094Zm-17.8223-10.5957h28.418c2.19727 0 3.71094-1.46484 3.71094-3.61328 0-2.19727-1.51367-3.71094-3.71094-3.71094h-28.418c-2.24609 0-3.75977 1.51367-3.75977 3.71094 0 2.14844 1.51367 3.61328 3.75977 3.61328Z"/>
  </g>
  <g transform="matrix(0.2 0 0 0.2 281.506 1933)">
   <path d="m58.5449 14.5508c27.4902 0 49.8047-22.3145 49.8047-49.8047s-22.3145-49.8047-49.8047-49.8047-49.8047 22.3145-49.8047 49.8047 22.3145 49.8047 49.8047 49.8047Zm0-8.30078c-22.9492 0-41.5039-18.5547-41.5039-41.5039s18.5547-41.5039 41.5039-41.5039 41.5039 18.5547 41.5039 41.5039-18.5547 41.5039-41.5039 41.5039Zm4.05273-23.0957v-36.9141c0-2.49023-1.70898-4.19922-4.15039-4.19922-2.39258 0-4.05273 1.70898-4.05273 4.19922v36.9141c0 2.44141 1.66016 4.15039 4.05273 4.15039 2.44141 0 4.15039-1.66016 4.15039-4.15039Zm-22.5586-14.4043h36.9629c2.44141 0 4.15039-1.61133 4.15039-4.00391 0-2.44141-1.70898-4.15039-4.15039-4.15039h-36.9629c-2.49023 0-4.15039 1.70898-4.15039 4.15039 0 2.39258 1.66016 4.00391 4.15039 4.00391Z"/>
  </g>
  <g transform="matrix(0.2 0 0 0.2 304.924 1933)">
   <path d="m74.8535 28.3203c35.1074 0 63.623-28.4668 63.623-63.5742s-28.5156-63.623-63.623-63.623-63.5742 28.5156-63.5742 63.623 28.4668 63.5742 63.5742 63.5742Zm0-9.08203c-30.127 0-54.4922-24.3652-54.4922-54.4922s24.3652-54.4922 54.4922-54.4922 54.4922 24.3652 54.4922 54.4922-24.3652 54.4922-54.4922 54.4922Zm4.44336-30.3223v-48.4863c0-2.73438-1.85547-4.63867-4.54102-4.63867-2.58789 0-4.44336 1.9043-4.44336 4.63867v48.4863c0 2.68555 1.85547 4.58984 4.44336 4.58984 2.68555 0 4.54102-1.85547 4.54102-4.58984Zm-28.7109-19.7754h48.4863c2.68555 0 4.58984-1.80664 4.58984-4.39453 0-2.73438-1.85547-4.58984-4.58984-4.58984h-48.4863c-2.73438 0-4.58984 1.85547-4.58984 4.58984 0 2.58789 1.85547 4.39453 4.58984 4.39453Z"/>
  </g>
  <text style="stroke:none;fill:black;font-family:sans-serif;font-size:13;font-weight:bold;" transform="matrix(1 0 0 1 263 1953)">Design Variations</text>
  <text style="stroke:none;fill:black;font-family:sans-serif;font-size:13;" transform="matrix(1 0 0 1 263 1971)">Symbols are supported in up to nine weights and three scales.</text>
  <text style="stroke:none;fill:black;font-family:sans-serif;font-size:13;" transform="matrix(1 0 0 1 263 1989)">For optimal layout with text and other symbols, vertically align</text>
  <text style="stroke:none;fill:black;font-family:sans-serif;font-size:13;" transform="matrix(1 0 0 1 263 2007)">symbols with the adjacent text.</text>
  <line style="fill:none;stroke:#00AEEF;stroke-width:0.5;opacity:1.0;" x1="776" x2="776" y1="1919" y2="1933"/>
  <g transform="matrix(0.2 0 0 0.2 776 1933)">
   <path d="m16.5527 0.78125c2.58789 0 3.85742-0.976562 4.78516-3.71094l20.5566-57.5195h0.244141l20.6055 57.5195c0.927734 2.73438 2.19727 3.71094 4.73633 3.71094 2.58789 0 4.24805-1.5625 4.24805-4.00391 0-0.830078-0.146484-1.61133-0.537109-2.63672l-22.9004-60.9863c-1.12305-2.97852-3.125-4.49219-6.25-4.49219-3.02734 0-5.07812 1.46484-6.15234 4.44336l-22.9004 61.084c-0.390625 1.02539-0.537109 1.80664-0.537109 2.63672 0 2.44141 1.5625 3.95508 4.10156 3.95508Zm10.2051-20.9473h30.6641c2.00195 0 3.66211-1.66016 3.66211-3.66211 0-2.05078-1.66016-3.66211-3.66211-3.66211h-30.6641c-2.00195 0-3.66211 1.61133-3.66211 3.66211 0 2.00195 1.66016 3.66211 3.66211 3.66211Z"/>
  </g>
  <line style="fill:none;stroke:#00AEEF;stroke-width:0.5;opacity:1.0;" x1="792.836" x2="792.836" y1="1919" y2="1933"/>
  <text style="stroke:none;fill:black;font-family:sans-serif;font-size:13;font-weight:bold;" transform="matrix(1 0 0 1 776 1953)">Margins</text>
  <text style="stroke:none;fill:black;font-family:sans-serif;font-size:13;" transform="matrix(1 0 0 1 776 1971)">Leading and trailing margins on the left and right side of each symbol</text>
  <text style="stroke:none;fill:black;font-family:sans-serif;font-size:13;" transform="matrix(1 0 0 1 776 1989)">can be adjusted by modifying the x-location of the margin guidelines.</text>
  <text style="stroke:none;fill:black;font-family:sans-serif;font-size:13;" transform="matrix(1 0 0 1 776 2007)">Modifications are automatically applied proportionally to all</text>
  <text style="stroke:none;fill:black;font-family:sans-serif;font-size:13;" transform="matrix(1 0 0 1 776 2025)">scales and weights.</text>
  <g transform="matrix(0.2 0 0 0.2 1289 1933)">
   <path d="m14.209 13.1348 7.86133 7.86133c4.29688 4.39453 9.32617 4.10156 13.8672-1.02539l60.6934-68.2129-4.88281-4.88281-60.2539 67.6758c-1.80664 1.95312-3.4668 2.44141-5.81055 0.0976562l-5.17578-5.12695c-2.29492-2.29492-1.80664-3.95508 0.195312-5.81055l67.4805-62.1582-4.88281-4.83398-68.0664 62.5977c-4.98047 4.58984-5.32227 9.47266-1.02539 13.8184Zm44.873-97.4609c-2.05078 2.00195-2.24609 4.88281-1.07422 6.78711 1.12305 1.80664 3.4668 3.02734 6.5918 2.24609 5.85938-1.66016 12.5977-2.39258 18.8965 0.927734l-2.68555 7.12891c-1.61133 4.00391-0.732422 6.88477 1.70898 9.42383l10.2539 10.3027c2.34375 2.39258 4.54102 2.44141 7.08008 1.95312l4.44336-0.732422 2.58789 2.53906-0.195312 2.24609c-0.0976562 2.29492 0.537109 4.29688 2.7832 6.49414l3.36914 3.32031c2.29492 2.29492 5.51758 2.49023 7.8125 0.195312l12.9883-13.0371c2.29492-2.34375 2.14844-5.37109-0.195312-7.66602l-3.41797-3.41797c-2.19727-2.19727-4.05273-3.02734-6.34766-2.88086l-2.34375 0.244141-2.44141-2.44141 1.02539-4.6875c0.634766-2.73438-0.244141-4.98047-2.88086-7.61719l-11.2793-11.1816c-12.9395-12.8418-35.5957-11.0352-46.6797-0.146484Zm7.08008 2.05078c8.78906-6.39648 25.9766-5.66406 33.6914 1.95312l12.3047 12.207c1.02539 1.02539 1.2207 1.80664 0.927734 3.32031l-1.46484 6.64062 6.73828 6.68945 4.39453-0.244141c1.12305-0.0488281 1.51367 0.0488281 2.34375 0.878906l2.53906 2.49023-10.8398 10.8398-2.49023-2.49023c-0.830078-0.878906-0.976562-1.2207-0.927734-2.39258l0.292969-4.3457-6.68945-6.73828-6.83594 1.17188c-1.41602 0.292969-2.05078 0.195312-3.17383-0.878906l-8.93555-8.88672c-1.07422-1.02539-1.17188-1.70898-0.488281-3.36914l4.58984-11.4746c-6.10352-6.34766-17.041-7.51953-25.5859-4.58984-0.683594 0.244141-0.927734-0.390625-0.390625-0.78125Z"/>
  </g>
  <text style="stroke:none;fill:black;font-family:sans-serif;font-size:13;font-weight:bold;" transform="matrix(1 0 0 1 1289 1953)">Exporting</text>
  <text style="stroke:none;fill:black;font-family:sans-serif;font-size:13;" transform="matrix(1 0 0 1 1289 1971)">Symbols should be outlined when exporting to ensure the</text>
  <text style="stroke:none;fill:black;font-family:sans-serif;font-size:13;" transform="matrix(1 0 0 1 1289 1989)">design is preserved when submitting to Xcode.</text>
  <text id="template-version" style="stroke:none;fill:black;font-family:sans-serif;font-size:13;text-anchor:end;" transform="matrix(1 0 0 1 3036 1933)">Template v.6.0</text>
  <text style="stroke:none;fill:black;font-family:sans-serif;font-size:13;text-anchor:end;" transform="matrix(1 0 0 1 3036 1951)">Requires Xcode 16 or greater</text>
  <text id="descriptive-name" style="stroke:none;fill:black;font-family:sans-serif;font-size:13;text-anchor:end;" transform="matrix(1 0 0 1 3036 1969)">Generated from </text>
  <text style="stroke:none;fill:black;font-family:sans-serif;font-size:13;text-anchor:end;" transform="matrix(1 0 0 1 3036 1987)">Typeset at 100.0 points</text>
  <text style="stroke:none;fill:black;font-family:sans-serif;font-size:13;" transform="matrix(1 0 0 1 263 726)">Small</text>
  <text style="stroke:none;fill:black;font-family:sans-serif;font-size:13;" transform="matrix(1 0 0 1 263 1156)">Medium</text>
  <text style="stroke:none;fill:black;font-family:sans-serif;font-size:13;" transform="matrix(1 0 0 1 263 1586)">Large</text>
 </g>
 <g id="Guides">
  <g id="H-reference" style="fill:#27AAE1;stroke:none;" transform="matrix(1 0 0 1 339 696)">
   <path d="M0.993654 0L3.63775 0L29.3281-67.1323L30.0303-67.1323L30.0303-70.459L28.1226-70.459ZM11.6885-24.4799L46.9815-24.4799L46.2315-26.7285L12.4385-26.7285ZM55.1196 0L57.7637 0L30.6382-70.459L29.4326-70.459L29.4326-67.1323Z"/>
  </g>
  <line id="Baseline-S" style="fill:none;stroke:#27AAE1;opacity:1;stroke-width:0.5;" x1="263" x2="3036" y1="696" y2="696"/>
  <line id="Capline-S" style="fill:none;stroke:#27AAE1;opacity:1;stroke-width:0.5;" x1="263" x2="3036" y1="625.541" y2="625.541"/>
  <g id="H-reference" style="fill:#27AAE1;stroke:none;" transform="matrix(1 0 0 1 339 1126)">
   <path d="M0.993654 0L3.63775 0L29.3281-67.1323L30.0303-67.1323L30.0303-70.459L28.1226-70.459ZM11.6885-24.4799L46.9815-24.4799L46.2315-26.7285L12.4385-26.7285ZM55.1196 0L57.7637 0L30.6382-70.459L29.4326-70.459L29.4326-67.1323Z"/>
  </g>
  <line id="Baseline-M" style="fill:none;stroke:#27AAE1;opacity:1;stroke-width:0.5;" x1="263" x2="3036" y1="1126" y2="1126"/>
  <line id="Capline-M" style="fill:none;stroke:#27AAE1;opacity:1;stroke-width:0.5;" x1="263" x2="3036" y1="1055.54" y2="1055.54"/>
  <g id="H-reference" style="fill:#27AAE1;stroke:none;" transform="matrix(1 0 0 1 339 1556)">
   <path d="M0.993654 0L3.63775 0L29.3281-67.1323L30.0303-67.1323L30.0303-70.459L28.1226-70.459ZM11.6885-24.4799L46.9815-24.4799L46.2315-26.7285L12.4385-26.7285ZM55.1196 0L57.7637 0L30.6382-70.459L29.4326-70.459L29.4326-67.1323Z"/>
  </g>
  <line id="Baseline-L" style="fill:none;stroke:#27AAE1;opacity:1;stroke-width:0.5;" x1="263" x2="3036" y1="1556" y2="1556"/>
  <line id="Capline-L" style="fill:none;stroke:#27AAE1;opacity:1;stroke-width:0.5;" x1="263" x2="3036" y1="1485.54" y2="1485.54"/>
  <line id="right-margin-Black-S" style="fill:none;stroke:#00AEEF;stroke-width:0.5;opacity:1.0;" x1="2995.88" x2="2995.88" y1="600.785" y2="720.121"/>
  <line id="left-margin-Black-S" style="fill:none;stroke:#00AEEF;stroke-width:0.5;opacity:1.0;" x1="2870.92" x2="2870.92" y1="600.785" y2="720.121"/>
  <line id="right-margin-Regular-S" style="fill:none;stroke:#00AEEF;stroke-width:0.5;opacity:1.0;" x1="1508.63" x2="1508.63" y1="600.785" y2="720.121"/>
  <line id="left-margin-Regular-S" style="fill:none;stroke:#00AEEF;stroke-width:0.5;opacity:1.0;" x1="1391.06" x2="1391.06" y1="600.785" y2="720.121"/>
  <line id="right-margin-Ultralight-S" style="fill:none;stroke:#00AEEF;stroke-width:0.5;opacity:1.0;" x1="609.691" x2="609.691" y1="600.785" y2="720.121"/>
  <line id="left-margin-Ultralight-S" style="fill:none;stroke:#00AEEF;stroke-width:0.5;opacity:1.0;" x1="509.732" x2="509.732" y1="600.785" y2="720.121"/>
 </g>
 <g id="Symbols">
  <g id="Black-S" transform="matrix(1 0 0 1 2870.92 696)">
   <path class="monochrome-0 multicolor-0:tintColor hierarchical-0:secondary SFSymbolsPreviewWireframe" d="M6.83594-36.6211C6.83594-20.6055 17.9688-9.76562 34.375-9.76562C50.5859-9.76562 61.5723-19.6289 61.5723-34.1797C61.5723-40.2344 59.5215-45.2637 55.6152-48.5352C53.4668-50.3418 51.9531-50.9766 49.9023-50.9766C46.6309-50.9766 44.1895-48.7305 44.1895-45.6543C44.1895-42.7734 44.873-42.4805 48.3887-39.1602C49.4629-38.1836 50-36.5723 50-34.3262C50-26.5625 43.9453-21.4355 34.5215-21.4355C24.8535-21.4355 18.5547-27.4414 18.5547-36.6699C18.5547-42.7246 21.9727-47.998 27.5391-50.4395L21.4355-60.498C12.3535-55.9082 6.83594-46.7285 6.83594-36.6211ZM17.0898-58.7402C17.0898-48.1934 24.5605-41.0156 35.4004-41.0156C38.623-41.0156 41.2598-43.6523 41.2598-46.875C41.2598-50.0977 38.623-52.7344 35.4004-52.7344C31.2988-52.7344 28.8086-55.0293 28.8086-58.7402C28.8086-62.6465 32.0801-65.3809 36.7676-65.3809C40.0879-65.3809 43.2617-64.0137 45.9961-61.4258L52.9297-70.9961C48.3398-74.9023 42.5293-77.0996 36.8164-77.0996C25.5859-77.0996 17.0898-69.2383 17.0898-58.7402ZM39.0625-60.791C39.0625-57.1289 41.5039-54.541 44.873-54.541C48.1934-54.541 50.5371-56.8848 50.6836-60.2539C50.9277-66.3574 55.2246-70.5566 61.2305-70.5566C64.7461-70.5566 68.0176-68.7012 69.3359-65.9668C70.166-64.4043 71.6309-64.0625 73.3398-64.4531C74.3164-64.6973 75.4883-64.7949 76.5625-64.7949C82.8613-64.7461 87.8906-59.8145 87.8906-53.5645C87.8906-37.0605 63.1348-37.1094 63.1348-17.9199C63.1348-7.91016 70.3613-1.2207 81.25-1.2207C81.3477-1.2207 81.4941-1.2207 81.5918-1.2207C83.4961 6.44531 89.0137 11.7188 95.7031 11.7188C105.859 11.7188 113.184 1.9043 113.184-13.5742C113.184-20.8496 112.695-24.9512 112.158-29.1016L100.586-25.9766C101.025-22.0703 101.514-18.6035 101.514-13.7207C101.514-3.4668 98.4375 0 95.7031 0C93.2617 0 91.3086-3.85742 91.3086-9.13086C91.3086-10.791 90.0391-11.9629 88.3301-11.9629C88.0371-11.9629 87.7441-11.9629 85.8398-11.9629C79.541-11.9629 75.8301-14.6484 75.8301-18.7012C75.8301-29.1992 99.6094-29.248 99.6094-53.5645C99.6094-66.4551 89.8926-76.5137 77.5879-76.5137C77.1484-76.5137 76.6113-76.4648 75.9766-76.416C72.168-80.0781 66.7969-82.2266 61.2793-82.2266C48.8281-82.2266 39.0625-73.4375 39.0625-60.791ZM86.7676-20.3125C86.7676-17.1387 89.209-14.6973 92.4805-14.4531C107.715-13.2812 118.115-22.4609 118.115-37.0605C118.115-49.3652 108.789-58.8379 95.3125-59.9609L93.2617-47.8516C101.123-49.0723 106.396-44.5801 106.396-37.0605C106.396-29.5898 101.172-25.293 92.8223-26.123C89.5508-26.416 86.7676-23.6816 86.7676-20.3125ZM68.7012-18.75C66.2598-17.4316 63.2812-16.6504 60.3516-16.6504C57.373-16.6504 54.4434-17.4805 52.2461-19.3848L39.8926-11.084C44.8242-7.22656 51.709-4.98047 58.9844-4.98047C63.6719-4.98047 68.4082-5.85938 72.8027-7.4707ZM51.0742-43.3105L55.0781-31.9336C67.0898-33.5938 73.9746-40.6738 73.4863-52.1973C73.3398-55.4199 70.5566-58.0566 67.334-58.0566C64.1113-58.0566 61.5234-55.4199 61.7676-52.1973C62.2559-45.8984 58.8867-43.7012 51.0742-43.3105Z"/>
   <path class="monochrome-1 multicolor-1:tintColor hierarchical-1:primary SFSymbolsPreviewWireframe" d="M106.452-4.48836C110.103-0.837264 110.103 5.09118 106.452 8.74227C102.801 12.3934 96.8722 12.3934 93.2211 8.74227L18.5082-65.9706C14.8571-69.6217 14.8571-75.5502 18.5082-79.2013C22.1593-82.8524 28.0878-82.8524 31.7389-79.2013Z" data-clipstroke-keyframes="0 0 0 0.49990463 0.6089134 0 1 0.10891342 0"/>
   <path class="monochrome-2 multicolor-2:tintColor hierarchical-2:primary SFSymbolsPreviewWireframe" d="M102.302-0.338247C103.662 1.02234 103.662 3.23158 102.302 4.59217C100.941 5.95275 98.7318 5.95275 97.3712 4.59217L22.6583-70.1207C21.2978-71.4813 21.2978-73.6906 22.6583-75.0511C24.0189-76.4117 26.2282-76.4117 27.5888-75.0511Z" data-clipstroke-keyframes="0 0 0 0.49988937 0.54707384 0 1 0.04707384 0"/>
  </g>
  <g id="Regular-S" transform="matrix(1 0 0 1 1391.06 696)">
   <path class="monochrome-0 multicolor-0:tintColor hierarchical-0:secondary SFSymbolsPreviewWireframe" d="M6.83594-38.0859C6.83594-23.4863 16.8457-13.7695 31.8359-13.7695C46.6309-13.7695 56.4941-22.5586 56.4941-35.6445C56.4941-41.2109 54.5898-45.459 51.3672-48.1934C49.7559-49.5605 48.7793-50.0488 47.2656-50.0488C45.2148-50.0488 43.8965-48.8281 43.8965-47.0215C43.8965-44.7754 45.166-44.2383 47.2168-42.334C48.7305-40.918 49.5605-38.6719 49.5605-35.791C49.5605-26.8066 42.5293-20.8008 31.9824-20.8008C21.1426-20.8008 13.8672-27.7344 13.8672-38.1348C13.8672-44.1895 16.8945-49.6582 21.9238-52.7832L18.3105-58.8379C11.1328-54.3945 6.83594-46.582 6.83594-38.0859ZM17.7246-58.5938C17.7246-49.4629 24.0723-43.2617 33.6426-43.2617C35.5957-43.2617 37.1582-44.873 37.1582-46.7773C37.1582-48.7305 35.5957-50.293 33.6426-50.293C28.2715-50.293 24.7559-53.6621 24.7559-58.5938C24.7559-64.0625 29.3945-67.5293 35.0098-67.5293C37.8906-67.5293 40.9668-66.6016 43.75-64.5996L47.9004-70.3125C43.8477-73.2422 39.3066-74.5605 35.0586-74.5605C25.7324-74.5605 17.7246-68.2617 17.7246-58.5938ZM38.6719-59.5703C38.623-57.2754 40.1367-55.7617 42.1875-55.7617C44.0918-55.7617 45.5566-56.9824 45.6543-59.2285C45.9473-66.4062 51.0742-71.6797 58.4473-71.6797C62.9883-71.6797 66.8945-69.2383 68.457-65.918C68.75-65.3809 69.1895-65.332 70.0195-65.5273C71.1914-65.7715 72.5098-65.918 73.8281-65.918C80.5176-65.8691 87.3047-60.791 87.3047-52.4902C87.3047-33.9355 61.6699-37.0117 61.6699-18.9941C61.6699-10.2051 68.7012-4.6875 77.4902-4.6875C78.4668-4.6875 79.4922-4.73633 80.4688-4.78516C81.4453 1.5625 85.6445 8.20312 92.627 8.20312C102.783 8.20312 107.666-4.00391 107.666-14.8926C107.666-20.4102 107.373-23.9746 106.982-27.2949L99.9512-25.3906C100.342-22.2168 100.635-19.0918 100.635-14.9902C100.635-6.29883 96.9727 1.12305 92.627 1.12305C87.7441 1.12305 85.9863-5.51758 85.9863-10.2051C85.9863-10.5957 85.791-10.8398 85.2539-10.8398C84.082-10.8398 82.9102-10.8398 81.8359-10.8398C73.877-10.8398 68.7012-13.0371 68.7012-19.0918C68.7012-33.252 94.3359-29.3457 94.3359-52.4902C94.3359-64.7949 85.0098-72.998 74.8047-72.998C74.1699-72.998 73.2422-72.8516 72.2656-72.7051C68.9941-76.3672 63.9648-78.7109 58.4961-78.7109C47.2168-78.7109 39.1602-70.8008 38.6719-59.5703ZM84.2773-20.9961C84.2773-19.043 85.791-17.627 87.793-17.4805C101.562-16.4551 110.742-24.5117 110.742-37.5977C110.742-48.0469 103.271-56.1523 92.0898-57.8125L90.9668-50.8301C98.584-50.7324 103.711-45.459 103.711-37.5977C103.711-28.8574 97.3145-23.584 87.793-24.4629C85.791-24.6582 84.2773-22.9004 84.2773-20.9961ZM64.6484-16.3574C62.3047-15.4785 59.668-15.0879 57.0801-15.0879C50.3418-15.0879 43.6523-17.7734 41.2598-21.6309L35.4004-16.8945C39.502-11.7676 47.1191-8.05664 56.2988-8.05664C59.7168-8.05664 63.3789-8.54492 67.0898-9.66797ZM52.3438-44.4824L54.6875-37.8418C64.7949-39.7949 69.2383-46.1426 69.2383-55.3711C69.2383-57.3242 67.627-58.8867 65.7227-58.8867C63.7695-58.8867 62.207-57.3242 62.207-55.3711C62.207-49.2188 59.6191-45.5078 52.3438-44.4824Z"/>
   <path class="monochrome-1 multicolor-1:tintColor hierarchical-1:primary SFSymbolsPreviewWireframe" d="M99.8383-6.06714C103.12-2.78573 103.12 2.54245 99.8383 5.82386C96.5569 9.10527 91.2288 9.10527 87.9474 5.82386L17.7317-64.3918C14.4502-67.6733 14.4502-73.0014 17.7317-76.2828C21.0131-79.5643 26.3412-79.5643 29.6226-76.2828Z" data-clipstroke-keyframes="0 0 0 0.50010824 0.6049547 0 1 0.10495472 0"/>
   <path class="monochrome-2 multicolor-2:tintColor hierarchical-2:primary SFSymbolsPreviewWireframe" d="M96.3719-2.60066C97.7401-1.23245 97.7401 0.98917 96.3719 2.35738C95.0037 3.72558 92.782 3.72558 91.4138 2.35738L21.1981-67.8583C19.8299-69.2265 19.8299-71.4482 21.1981-72.8164C22.5663-74.1846 24.788-74.1846 26.1562-72.8164Z" data-clipstroke-keyframes="0 0 0 0.50020504 0.5497174 0 1 0.049717426 0"/>
  </g>
  <g id="Ultralight-S" transform="matrix(1 0 0 1 509.732 696)">
   <path class="monochrome-0 multicolor-0:tintColor hierarchical-0:secondary SFSymbolsPreviewWireframe" d="M6.83594-38.313C6.83594-27.2553 14.3936-19.9907 25.8873-19.9907C37.004-19.9907 44.5514-26.4184 44.5514-36.0532C44.5514-39.9395 42.9195-43.8696 40.6051-45.9683C40.2198-46.2456 39.9698-46.3706 39.546-46.3706C38.9029-46.3706 38.4473-45.9219 38.4473-45.2959C38.4473-44.8662 38.627-44.6016 38.9976-44.2412C41.1924-42.0986 42.3858-39.0806 42.3858-36.0635C42.3858-27.7602 35.7632-22.2085 25.8975-22.2085C15.6934-22.2085 9.05375-28.5972 9.05375-38.3618C9.05375-43.7808 11.8995-49.6128 16.2022-52.874L15.6768-55.0689C10.3608-51.6699 6.83594-44.811 6.83594-38.313ZM14.6367-55.9146C14.6367-49.917 18.7593-44.2607 27.1036-44.2607C27.649-44.2607 28.2125-44.8276 28.2125-45.3696C28.2125-45.9605 27.649-46.4785 27.1036-46.4785C20.1885-46.4785 16.8091-51.0738 16.8091-55.9146C16.8091-61.1563 20.7667-66.4395 28.3345-66.4395C30.8521-66.4395 33.4288-65.8296 35.8033-64.5088L37.0929-66.3618C34.3116-67.9292 31.3599-68.6573 28.3834-68.6573C19.3751-68.6573 14.6367-62.2676 14.6367-55.9146ZM32.4053-57.1182C32.4019-56.4126 32.9166-55.8979 33.5142-55.8979C34.1016-55.8979 34.6129-56.3921 34.6197-57.0034C34.9127-64.7261 40.5846-70.272 48.4117-70.272C52.6348-70.272 56.5865-68.3755 58.0128-63.9199C58.2149-63.3374 58.5636-63.334 59.0304-63.5293C60.7926-64.273 62.565-64.6011 64.2921-64.5557C71.8443-64.4614 76.9513-59.0654 76.9513-51.0371C76.9513-35.7519 53.4507-35.4678 53.4507-20.3564C53.4507-13.8379 58.1207-9.95504 65.8199-9.95504C66.4786-9.95504 67.4132-10.0039 68.4352-10.0527C68.8668-2.84225 72.3849 1.98198 77.4601 1.98198C84.3468 1.98198 88.0944-7.09177 88.0944-20.3872C88.0944-22.6806 87.9377-24.9282 87.7741-27.2041L85.4654-26.2988C85.7198-23.8515 85.8766-22.0888 85.8766-20.3032C85.8766-8.29686 82.941-0.239247 77.4601-0.239247C73.2584-0.239247 70.547-4.88184 70.547-11.5674C70.547-12.0034 70.3063-12.293 69.86-12.2475C69.0968-12.2021 66.608-12.1113 65.9879-12.1113C59.7999-12.1113 55.6686-15.1714 55.6686-20.3633C55.6686-33.5244 79.1691-33.9321 79.1691-51.0371C79.1691-60.481 73.1578-66.7769 64.3604-66.7769C62.9991-66.8223 61.2086-66.5396 59.5963-65.9844C57.4601-70.2823 53.1119-72.4898 48.4151-72.4898C39.4063-72.4898 32.8936-66.2598 32.4053-57.1182ZM74.8321-24.311C74.8321-23.6748 75.3468-23.2124 75.941-23.2021C86.2594-23.1303 93.1232-29.3706 93.1232-38.7783C93.1232-47.6382 86.8331-53.9273 77.4679-54.4976L77.4347-52.2378C85.506-51.9585 90.9054-46.5942 90.9054-38.7783C90.9054-30.7192 84.9176-25.355 75.941-25.3711C75.3468-25.3848 74.8321-24.8984 74.8321-24.311ZM54.9307-17.8105C53.0865-17.2495 50.4044-16.9043 48.2706-16.9043C43.0762-16.9043 37.1133-18.727 34.1758-22.8115L32.3125-21.2993C36.0054-16.8535 41.8062-14.6865 48.2159-14.6865C50.2261-14.6865 53.1163-15.0385 55.4649-15.5712ZM42.8077-39.669L43.6075-37.6147C51.1266-39.1592 54.9796-43.7813 54.8888-51.4659C54.8888-52.0567 54.4127-52.5748 53.7799-52.5748C53.189-52.5748 52.671-52.0567 52.671-51.4659C52.671-44.7232 49.5836-40.9214 42.8077-39.669Z"/>
   <path class="monochrome-1 multicolor-1:tintColor hierarchical-1:primary SFSymbolsPreviewWireframe" d="M87.6657-3.06064C89.1883-1.53808 89.1883 0.934172 87.6657 2.45673C86.1432 3.97929 83.6709 3.97929 82.1484 2.45673L12.2933-67.3983C10.7707-68.9209 10.7707-71.3932 12.2933-72.9157C13.8158-74.4383 16.2881-74.4383 17.8106-72.9157Z" data-clipstroke-keyframes="0 0 0 0.5001135 0.5550747 0 1 0.05507469 0"/>
   <path class="monochrome-2 multicolor-2:tintColor hierarchical-2:primary SFSymbolsPreviewWireframe" d="M85.6148-1.00975C86.0055-0.619106 86.0055 0.0152006 85.6148 0.405845C85.2242 0.796489 84.5899 0.796489 84.1992 0.405845L14.3442-69.4492C13.9535-69.8399 13.9535-70.4742 14.3442-70.8648C14.7348-71.2555 15.3691-71.2555 15.7598-70.8648Z" data-clipstroke-keyframes="0 0 0 0.50012684 0.51529884 0 1 0.015298843 0"/>
  </g>
 </g>
</svg>
