<?xml version="1.0" encoding="UTF-8"?>
<!--Generator: Apple Native CoreSVG 341-->
<!DOCTYPE svg
PUBLIC "-//W3C//DTD SVG 1.1//EN"
       "http://www.w3.org/Graphics/SVG/1.1/DTD/svg11.dtd">
<svg version="1.1" xmlns="http://www.w3.org/2000/svg" xmlns:xlink="http://www.w3.org/1999/xlink" viewBox="0 0 3300 2200">
 <!--glyph: "", point size: 100.0, font version: "20.0d10e1", template writer version: "138.0.0"-->
 <style>.monochrome-0 {-sfsymbols-motion-group:1;-sfsymbols-layer-tags:-359118ac16a0adcb -3610cc5ddbe17d80 sparkles}
.monochrome-1 {-sfsymbols-motion-group:1;-sfsymbols-layer-tags:-359118ac16a0adcb -3610cc5ddbe17d80 sparkles}
.monochrome-2 {-sfsymbols-motion-group:1;-sfsymbols-layer-tags:-359118ac16a0adcb -3610cc5ddbe17d80 sparkles}
.monochrome-3 {opacity:0.0;-sfsymbols-clear-behind:true;-sfsymbols-motion-group:0;-sfsymbols-layer-tags:-3610cc5ddbe17d80 _slash}
.monochrome-4 {-sfsymbols-motion-group:0;-sfsymbols-layer-tags:-3610cc5ddbe17d80 _slash}

.multicolor-0:tintColor {-sfsymbols-motion-group:1;-sfsymbols-layer-tags:-359118ac16a0adcb -3610cc5ddbe17d80 sparkles}
.multicolor-1:tintColor {-sfsymbols-motion-group:1;-sfsymbols-layer-tags:-359118ac16a0adcb -3610cc5ddbe17d80 sparkles}
.multicolor-2:tintColor {-sfsymbols-motion-group:1;-sfsymbols-layer-tags:-359118ac16a0adcb -3610cc5ddbe17d80 sparkles}
.multicolor-3:tintColor {opacity:0.0;-sfsymbols-clear-behind:true;-sfsymbols-motion-group:0;-sfsymbols-layer-tags:-3610cc5ddbe17d80 _slash}
.multicolor-4:tintColor {-sfsymbols-motion-group:0;-sfsymbols-layer-tags:-3610cc5ddbe17d80 _slash}

.hierarchical-0:secondary {-sfsymbols-motion-group:1;-sfsymbols-layer-tags:-359118ac16a0adcb -3610cc5ddbe17d80 sparkles}
.hierarchical-1:secondary {-sfsymbols-motion-group:1;-sfsymbols-layer-tags:-359118ac16a0adcb -3610cc5ddbe17d80 sparkles}
.hierarchical-2:secondary {-sfsymbols-motion-group:1;-sfsymbols-layer-tags:-359118ac16a0adcb -3610cc5ddbe17d80 sparkles}
.hierarchical-3:primary {opacity:0.0;-sfsymbols-clear-behind:true;-sfsymbols-motion-group:0;-sfsymbols-layer-tags:-3610cc5ddbe17d80 _slash}
.hierarchical-4:primary {-sfsymbols-motion-group:0;-sfsymbols-layer-tags:-3610cc5ddbe17d80 _slash}

.SFSymbolsPreviewWireframe {fill:none;opacity:1.0;stroke:black;stroke-width:0.5}
</style>
 <g id="Notes">
  <rect height="2200" id="artboard" style="fill:white;opacity:1" width="3300" x="0" y="0"/>
  <line style="fill:none;stroke:black;opacity:1;stroke-width:0.5;" x1="263" x2="3036" y1="292" y2="292"/>
  <text style="stroke:none;fill:black;font-family:sans-serif;font-size:13;font-weight:bold;" transform="matrix(1 0 0 1 263 322)">Weight/Scale Variations</text>
  <text style="stroke:none;fill:black;font-family:sans-serif;font-size:13;text-anchor:middle;" transform="matrix(1 0 0 1 559.711 322)">Ultralight</text>
  <text style="stroke:none;fill:black;font-family:sans-serif;font-size:13;text-anchor:middle;" transform="matrix(1 0 0 1 856.422 322)">Thin</text>
  <text style="stroke:none;fill:black;font-family:sans-serif;font-size:13;text-anchor:middle;" transform="matrix(1 0 0 1 1153.13 322)">Light</text>
  <text style="stroke:none;fill:black;font-family:sans-serif;font-size:13;text-anchor:middle;" transform="matrix(1 0 0 1 1449.84 322)">Regular</text>
  <text style="stroke:none;fill:black;font-family:sans-serif;font-size:13;text-anchor:middle;" transform="matrix(1 0 0 1 1746.56 322)">Medium</text>
  <text style="stroke:none;fill:black;font-family:sans-serif;font-size:13;text-anchor:middle;" transform="matrix(1 0 0 1 2043.27 322)">Semibold</text>
  <text style="stroke:none;fill:black;font-family:sans-serif;font-size:13;text-anchor:middle;" transform="matrix(1 0 0 1 2339.98 322)">Bold</text>
  <text style="stroke:none;fill:black;font-family:sans-serif;font-size:13;text-anchor:middle;" transform="matrix(1 0 0 1 2636.69 322)">Heavy</text>
  <text style="stroke:none;fill:black;font-family:sans-serif;font-size:13;text-anchor:middle;" transform="matrix(1 0 0 1 2933.4 322)">Black</text>
  <line style="fill:none;stroke:black;opacity:1;stroke-width:0.5;" x1="263" x2="3036" y1="1903" y2="1903"/>
  <g transform="matrix(0.2 0 0 0.2 263 1933)">
   <path d="m46.2402 4.15039c21.7773 0 39.4531-17.627 39.4531-39.4043s-17.6758-39.4043-39.4531-39.4043c-21.7285 0-39.4043 17.627-39.4043 39.4043s17.6758 39.4043 39.4043 39.4043Zm0-7.42188c-17.6758 0-31.9336-14.3066-31.9336-31.9824s14.2578-31.9824 31.9336-31.9824 31.9824 14.3066 31.9824 31.9824-14.3066 31.9824-31.9824 31.9824Zm-17.9688-31.9824c0 2.14844 1.51367 3.61328 3.75977 3.61328h10.498v10.5957c0 2.19727 1.46484 3.71094 3.61328 3.71094 2.24609 0 3.71094-1.51367 3.71094-3.71094v-10.5957h10.5957c2.19727 0 3.71094-1.46484 3.71094-3.61328 0-2.19727-1.51367-3.71094-3.71094-3.71094h-10.5957v-10.5469c0-2.24609-1.46484-3.75977-3.71094-3.75977-2.14844 0-3.61328 1.51367-3.61328 3.75977v10.5469h-10.498c-2.24609 0-3.75977 1.51367-3.75977 3.71094Z"/>
  </g>
  <g transform="matrix(0.2 0 0 0.2 281.506 1933)">
   <path d="m58.5449 14.5508c27.4902 0 49.8047-22.3145 49.8047-49.8047s-22.3145-49.8047-49.8047-49.8047-49.8047 22.3145-49.8047 49.8047 22.3145 49.8047 49.8047 49.8047Zm0-8.30078c-22.9492 0-41.5039-18.5547-41.5039-41.5039s18.5547-41.5039 41.5039-41.5039 41.5039 18.5547 41.5039 41.5039-18.5547 41.5039-41.5039 41.5039Zm-22.6562-41.5039c0 2.39258 1.66016 4.00391 4.15039 4.00391h14.3555v14.4043c0 2.44141 1.66016 4.15039 4.05273 4.15039 2.44141 0 4.15039-1.66016 4.15039-4.15039v-14.4043h14.4043c2.44141 0 4.15039-1.61133 4.15039-4.00391 0-2.44141-1.70898-4.15039-4.15039-4.15039h-14.4043v-14.3555c0-2.49023-1.70898-4.19922-4.15039-4.19922-2.39258 0-4.05273 1.70898-4.05273 4.19922v14.3555h-14.3555c-2.49023 0-4.15039 1.70898-4.15039 4.15039Z"/>
  </g>
  <g transform="matrix(0.2 0 0 0.2 304.924 1933)">
   <path d="m74.8535 28.3203c35.1074 0 63.623-28.4668 63.623-63.5742s-28.5156-63.623-63.623-63.623-63.5742 28.5156-63.5742 63.623 28.4668 63.5742 63.5742 63.5742Zm0-9.08203c-30.127 0-54.4922-24.3652-54.4922-54.4922s24.3652-54.4922 54.4922-54.4922 54.4922 24.3652 54.4922 54.4922-24.3652 54.4922-54.4922 54.4922Zm-28.8574-54.4922c0 2.58789 1.85547 4.39453 4.58984 4.39453h19.7266v19.7754c0 2.68555 1.85547 4.58984 4.44336 4.58984 2.68555 0 4.54102-1.85547 4.54102-4.58984v-19.7754h19.7754c2.68555 0 4.58984-1.80664 4.58984-4.39453 0-2.73438-1.85547-4.58984-4.58984-4.58984h-19.7754v-19.7266c0-2.73438-1.85547-4.63867-4.54102-4.63867-2.58789 0-4.44336 1.9043-4.44336 4.63867v19.7266h-19.7266c-2.73438 0-4.58984 1.85547-4.58984 4.58984Z"/>
  </g>
  <text style="stroke:none;fill:black;font-family:sans-serif;font-size:13;font-weight:bold;" transform="matrix(1 0 0 1 263 1953)">Design Variations</text>
  <text style="stroke:none;fill:black;font-family:sans-serif;font-size:13;" transform="matrix(1 0 0 1 263 1971)">Symbols are supported in up to nine weights and three scales.</text>
  <text style="stroke:none;fill:black;font-family:sans-serif;font-size:13;" transform="matrix(1 0 0 1 263 1989)">For optimal layout with text and other symbols, vertically align</text>
  <text style="stroke:none;fill:black;font-family:sans-serif;font-size:13;" transform="matrix(1 0 0 1 263 2007)">symbols with the adjacent text.</text>
  <line style="fill:none;stroke:#00AEEF;stroke-width:0.5;opacity:1.0;" x1="776" x2="776" y1="1919" y2="1933"/>
  <g transform="matrix(0.2 0 0 0.2 776 1933)">
   <path d="m16.5527 0.78125c2.58789 0 3.85742-0.976562 4.78516-3.71094l6.29883-17.2363h28.8086l6.29883 17.2363c0.927734 2.73438 2.19727 3.71094 4.73633 3.71094 2.58789 0 4.24805-1.5625 4.24805-4.00391 0-0.830078-0.146484-1.61133-0.537109-2.63672l-22.9004-60.9863c-1.12305-2.97852-3.125-4.49219-6.25-4.49219-3.02734 0-5.07812 1.46484-6.15234 4.44336l-22.9004 61.084c-0.390625 1.02539-0.537109 1.80664-0.537109 2.63672 0 2.44141 1.5625 3.95508 4.10156 3.95508Zm13.4766-28.3691 11.8652-32.8613h0.244141l11.8652 32.8613Z"/>
  </g>
  <line style="fill:none;stroke:#00AEEF;stroke-width:0.5;opacity:1.0;" x1="792.836" x2="792.836" y1="1919" y2="1933"/>
  <text style="stroke:none;fill:black;font-family:sans-serif;font-size:13;font-weight:bold;" transform="matrix(1 0 0 1 776 1953)">Margins</text>
  <text style="stroke:none;fill:black;font-family:sans-serif;font-size:13;" transform="matrix(1 0 0 1 776 1971)">Leading and trailing margins on the left and right side of each symbol</text>
  <text style="stroke:none;fill:black;font-family:sans-serif;font-size:13;" transform="matrix(1 0 0 1 776 1989)">can be adjusted by modifying the x-location of the margin guidelines.</text>
  <text style="stroke:none;fill:black;font-family:sans-serif;font-size:13;" transform="matrix(1 0 0 1 776 2007)">Modifications are automatically applied proportionally to all</text>
  <text style="stroke:none;fill:black;font-family:sans-serif;font-size:13;" transform="matrix(1 0 0 1 776 2025)">scales and weights.</text>
  <g transform="matrix(0.2 0 0 0.2 1289 1933)">
   <path d="m14.209 9.32617 8.49609 8.54492c4.29688 4.3457 9.22852 4.05273 13.8672-1.07422l53.4668-58.9355-4.83398-4.88281-53.0762 58.3984c-1.75781 2.00195-3.41797 2.49023-5.76172 0.146484l-5.85938-5.81055c-2.34375-2.29492-1.80664-4.00391 0.195312-5.81055l57.373-54.0039-4.88281-4.83398-57.959 54.4434c-4.93164 4.58984-5.32227 9.47266-1.02539 13.8184Zm32.0801-90.9668c-2.09961 2.05078-2.24609 4.93164-1.07422 6.88477 1.17188 1.80664 3.4668 2.97852 6.68945 2.14844 7.32422-1.70898 14.9414-2.00195 22.0703 2.68555l-2.92969 7.27539c-1.70898 4.15039-0.830078 7.08008 1.85547 9.81445l11.4746 11.5723c2.44141 2.44141 4.49219 2.53906 7.32422 2.05078l5.32227-0.976562 3.32031 3.36914-0.195312 2.7832c-0.195312 2.49023 0.439453 4.39453 2.88086 6.78711l3.80859 3.71094c2.39258 2.39258 5.46875 2.53906 7.8125 0.195312l14.5508-14.5996c2.34375-2.34375 2.24609-5.32227-0.146484-7.71484l-3.85742-3.80859c-2.39258-2.39258-4.24805-3.17383-6.64062-2.97852l-2.88086 0.244141-3.22266-3.17383 1.2207-5.61523c0.634766-2.83203-0.146484-5.0293-3.07617-7.95898l-10.9863-10.9375c-16.6992-16.6016-38.8672-16.2109-53.3203-1.75781Zm7.4707 1.85547c12.1582-8.88672 28.6133-7.37305 39.7461 3.75977l12.1582 12.0605c1.17188 1.17188 1.36719 2.09961 1.02539 3.80859l-1.61133 7.42188 7.51953 7.42188 4.93164-0.292969c1.26953-0.0488281 1.66016 0.0488281 2.63672 1.02539l2.88086 2.88086-12.207 12.207-2.88086-2.88086c-0.976562-0.976562-1.12305-1.36719-1.07422-2.68555l0.341797-4.88281-7.4707-7.42188-7.61719 1.26953c-1.61133 0.341797-2.34375 0.195312-3.56445-0.976562l-10.0098-10.0098c-1.26953-1.17188-1.41602-2.00195-0.634766-3.85742l4.39453-10.4492c-7.8125-7.27539-17.9688-10.4004-28.125-7.42188-0.78125 0.195312-1.07422-0.439453-0.439453-0.976562Z"/>
  </g>
  <text style="stroke:none;fill:black;font-family:sans-serif;font-size:13;font-weight:bold;" transform="matrix(1 0 0 1 1289 1953)">Exporting</text>
  <text style="stroke:none;fill:black;font-family:sans-serif;font-size:13;" transform="matrix(1 0 0 1 1289 1971)">Symbols should be outlined when exporting to ensure the</text>
  <text style="stroke:none;fill:black;font-family:sans-serif;font-size:13;" transform="matrix(1 0 0 1 1289 1989)">design is preserved when submitting to Xcode.</text>
  <text id="template-version" style="stroke:none;fill:black;font-family:sans-serif;font-size:13;text-anchor:end;" transform="matrix(1 0 0 1 3036 1933)">Template v.6.0</text>
  <text style="stroke:none;fill:black;font-family:sans-serif;font-size:13;text-anchor:end;" transform="matrix(1 0 0 1 3036 1951)">Requires Xcode 16 or greater</text>
  <text id="descriptive-name" style="stroke:none;fill:black;font-family:sans-serif;font-size:13;text-anchor:end;" transform="matrix(1 0 0 1 3036 1969)">Generated from </text>
  <text style="stroke:none;fill:black;font-family:sans-serif;font-size:13;text-anchor:end;" transform="matrix(1 0 0 1 3036 1987)">Typeset at 100.0 points</text>
  <text style="stroke:none;fill:black;font-family:sans-serif;font-size:13;" transform="matrix(1 0 0 1 263 726)">Small</text>
  <text style="stroke:none;fill:black;font-family:sans-serif;font-size:13;" transform="matrix(1 0 0 1 263 1156)">Medium</text>
  <text style="stroke:none;fill:black;font-family:sans-serif;font-size:13;" transform="matrix(1 0 0 1 263 1586)">Large</text>
 </g>
 <g id="Guides">
  <g id="H-reference" style="fill:#27AAE1;stroke:none;" transform="matrix(1 0 0 1 339 696)">
   <path d="M0.993654 0L3.63775 0L29.3281-67.1323L30.0303-67.1323L30.0303-70.459L28.1226-70.459ZM11.6885-24.4799L46.9815-24.4799L46.2315-26.7285L12.4385-26.7285ZM55.1196 0L57.7637 0L30.6382-70.459L29.4326-70.459L29.4326-67.1323Z"/>
  </g>
  <line id="Baseline-S" style="fill:none;stroke:#27AAE1;opacity:1;stroke-width:0.5;" x1="263" x2="3036" y1="696" y2="696"/>
  <line id="Capline-S" style="fill:none;stroke:#27AAE1;opacity:1;stroke-width:0.5;" x1="263" x2="3036" y1="625.541" y2="625.541"/>
  <g id="H-reference" style="fill:#27AAE1;stroke:none;" transform="matrix(1 0 0 1 339 1126)">
   <path d="M0.993654 0L3.63775 0L29.3281-67.1323L30.0303-67.1323L30.0303-70.459L28.1226-70.459ZM11.6885-24.4799L46.9815-24.4799L46.2315-26.7285L12.4385-26.7285ZM55.1196 0L57.7637 0L30.6382-70.459L29.4326-70.459L29.4326-67.1323Z"/>
  </g>
  <line id="Baseline-M" style="fill:none;stroke:#27AAE1;opacity:1;stroke-width:0.5;" x1="263" x2="3036" y1="1126" y2="1126"/>
  <line id="Capline-M" style="fill:none;stroke:#27AAE1;opacity:1;stroke-width:0.5;" x1="263" x2="3036" y1="1055.54" y2="1055.54"/>
  <g id="H-reference" style="fill:#27AAE1;stroke:none;" transform="matrix(1 0 0 1 339 1556)">
   <path d="M0.993654 0L3.63775 0L29.3281-67.1323L30.0303-67.1323L30.0303-70.459L28.1226-70.459ZM11.6885-24.4799L46.9815-24.4799L46.2315-26.7285L12.4385-26.7285ZM55.1196 0L57.7637 0L30.6382-70.459L29.4326-70.459L29.4326-67.1323Z"/>
  </g>
  <line id="Baseline-L" style="fill:none;stroke:#27AAE1;opacity:1;stroke-width:0.5;" x1="263" x2="3036" y1="1556" y2="1556"/>
  <line id="Capline-L" style="fill:none;stroke:#27AAE1;opacity:1;stroke-width:0.5;" x1="263" x2="3036" y1="1485.54" y2="1485.54"/>
  <line id="right-margin-Black-S" style="fill:none;stroke:#FF3B30;stroke-width:0.5;opacity:1.0;" x1="2979.88" x2="2979.88" y1="600.785" y2="720.121"/>
  <line id="left-margin-Black-S" style="fill:none;stroke:#FF3B30;stroke-width:0.5;opacity:1.0;" x1="2886.92" x2="2886.92" y1="600.785" y2="720.121"/>
  <line id="right-margin-Regular-S" style="fill:none;stroke:#FF3B30;stroke-width:0.5;opacity:1.0;" x1="1493.33" x2="1493.33" y1="600.785" y2="720.121"/>
  <line id="left-margin-Regular-S" style="fill:none;stroke:#FF3B30;stroke-width:0.5;opacity:1.0;" x1="1406.36" x2="1406.36" y1="600.785" y2="720.121"/>
  <line id="right-margin-Ultralight-S" style="fill:none;stroke:#00AEEF;stroke-width:0.5;opacity:1.0;" x1="601.739" x2="601.739" y1="600.785" y2="720.121"/>
  <line id="left-margin-Ultralight-S" style="fill:none;stroke:#00AEEF;stroke-width:0.5;opacity:1.0;" x1="517.683" x2="517.683" y1="600.785" y2="720.121"/>
 </g>
 <g id="Symbols">
  <g id="Black-S" transform="matrix(1 0 0 1 2886.92 696)">
   <path class="monochrome-0 multicolor-0:tintColor hierarchical-0:secondary SFSymbolsPreviewWireframe" d="M42.4805-63.1348C43.2129-63.1348 43.75-63.6719 43.8477-64.3555C44.7266-70.3613 44.6777-70.3125 51.1719-71.6309C51.9043-71.7773 52.3926-72.2656 52.3926-72.998C52.3926-73.7305 51.8555-74.2676 51.123-74.3652C44.6777-75.2441 44.6777-75.293 43.8477-81.5918C43.75-82.3242 43.2129-82.8613 42.4805-82.8613C41.748-82.8613 41.2109-82.3242 41.1133-81.543C40.3809-75.6348 40.332-75.6836 33.7891-74.3652C33.0566-74.2188 32.5684-73.7305 32.5684-72.998C32.5684-72.2656 33.0566-71.7773 33.9355-71.6309C40.2344-70.5566 40.2832-70.5566 41.1133-64.4043C41.2109-63.6719 41.748-63.1348 42.4805-63.1348Z"/>
   <path class="monochrome-1 multicolor-1:tintColor hierarchical-1:secondary SFSymbolsPreviewWireframe" d="M23.7305-34.375C24.8535-34.375 25.7812-35.2051 25.9277-36.3281C27.1973-46.0449 27.2461-46.2402 37.7441-48.0469C38.8672-48.2422 39.6484-49.1211 39.6484-50.2441C39.6484-51.3672 38.8184-52.2949 37.6953-52.4414C27.3926-53.8086 27.1973-54.0039 25.9277-64.1113C25.7812-65.2832 24.9023-66.1133 23.7305-66.1133C22.5586-66.1133 21.6797-65.2832 21.5332-64.0625C20.3613-54.3945 20.2148-54.248 9.7168-52.4414C8.59375-52.2461 7.8125-51.3672 7.8125-50.2441C7.8125-49.0723 8.59375-48.2422 9.96094-48.0469C20.1172-46.582 20.3613-46.1914 21.5332-36.4258C21.6797-35.2051 22.5586-34.375 23.7305-34.375Z"/>
   <path class="monochrome-2 multicolor-2:tintColor hierarchical-2:secondary SFSymbolsPreviewWireframe" d="M52.832 8.54492C54.9316 8.54492 56.5918 7.03125 56.9336 4.88281C59.8145-14.7461 62.5-17.4805 81.3477-19.6289C83.5449-19.873 85.1562-21.6309 85.1562-23.7793C85.1562-25.8789 83.5938-27.5879 81.3965-27.9297C62.5977-30.6152 60.4004-32.8125 56.9336-52.4414C56.543-54.5898 54.8828-56.1035 52.832-56.1035C50.7324-56.1035 49.0723-54.5898 48.7305-52.4414C45.8496-32.8125 43.1641-30.0781 24.3164-27.9297C22.1191-27.6855 20.5078-25.9277 20.5078-23.7793C20.5078-21.6797 22.0703-19.9707 24.2676-19.6289C43.0664-16.9434 45.2637-14.7461 48.7305 4.88281C49.1211 7.03125 50.7812 8.54492 52.832 8.54492Z"/>
   <path class="monochrome-3 multicolor-3:tintColor hierarchical-3:primary SFSymbolsPreviewWireframe" d="M90.4518-4.48836C94.1029-0.837264 94.1029 5.09118 90.4518 8.74227C86.8007 12.3934 80.8722 12.3934 77.2211 8.74227L2.50823-65.9706C-1.14286-69.6217-1.14286-75.5502 2.50823-79.2013C6.15933-82.8524 12.0878-82.8524 15.7389-79.2013Z" data-clipstroke-keyframes="0 0 0.0 0.5 0.6082697 0 1.0 0.10826972 0.0"/>
   <path class="monochrome-4 multicolor-4:tintColor hierarchical-4:primary SFSymbolsPreviewWireframe" d="M86.3017-0.338247C87.6622 1.02234 87.6622 3.23158 86.3017 4.59217C84.9411 5.95275 82.7318 5.95275 81.3712 4.59217L6.65834-70.1207C5.29776-71.4813 5.29776-73.6906 6.65834-75.0511C8.01893-76.4117 10.2282-76.4117 11.5888-75.0511Z" data-clipstroke-keyframes="0 0 0.0 0.5 0.5458696 0 1.0 0.04586959 0.0"/>
  </g>
  <g id="Regular-S" transform="matrix(1 0 0 1 1406.36 696)">
   <path class="monochrome-0 multicolor-0:tintColor hierarchical-0:secondary SFSymbolsPreviewWireframe" d="M41.2598-63.6719C41.7969-63.6719 42.0898-64.0137 42.1875-64.4531C43.4082-70.752 43.3105-70.8496 49.8535-72.1191C50.3418-72.2168 50.6836-72.5098 50.6836-73.0469C50.6836-73.584 50.3418-73.877 49.8535-73.9746C43.3105-75.2441 43.4082-75.3418 42.1875-81.6406C42.0898-82.1289 41.7969-82.4707 41.2598-82.4707C40.7715-82.4707 40.4785-82.1289 40.3809-81.6406C39.1113-75.3418 39.2578-75.2441 32.7148-73.9746C32.2266-73.877 31.8848-73.584 31.8848-73.0469C31.8848-72.5098 32.2266-72.2168 32.7148-72.1191C39.2578-70.8496 39.1113-70.752 40.3809-64.4531C40.4785-64.0137 40.7715-63.6719 41.2598-63.6719Z"/>
   <path class="monochrome-1 multicolor-1:tintColor hierarchical-1:secondary SFSymbolsPreviewWireframe" d="M22.9492-37.1582C23.7305-37.1582 24.2676-37.6953 24.3652-38.4766C25.6836-48.6816 26.123-48.7305 36.7188-50.7812C37.4512-50.8789 38.0371-51.416 38.0371-52.1973C38.0371-53.0273 37.4512-53.5645 36.7188-53.6621C26.123-55.0293 25.6348-55.5176 24.3652-65.918C24.2676-66.748 23.7305-67.2852 22.9492-67.2852C22.1191-67.2852 21.582-66.748 21.4844-65.8691C20.3125-55.6641 19.5801-55.6641 9.13086-53.6621C8.39844-53.5156 7.8125-53.0273 7.8125-52.1973C7.8125-51.3672 8.39844-50.8789 9.32617-50.7812C19.6777-49.1699 20.3125-48.7793 21.4844-38.5742C21.582-37.6953 22.1191-37.1582 22.9492-37.1582Z"/>
   <path class="monochrome-2 multicolor-2:tintColor hierarchical-2:secondary SFSymbolsPreviewWireframe" d="M48.877 4.93164C49.9023 4.93164 50.7324 4.19922 50.9277 3.07617C53.7598-17.2852 56.8848-20.8496 77.1484-23.2422C78.3203-23.3398 79.1504-24.2188 79.1504-25.293C79.1504-26.416 78.3203-27.2461 77.1484-27.3926C56.8848-29.7852 53.7598-33.3008 50.9277-53.6621C50.7324-54.834 49.9023-55.5664 48.877-55.5664C47.8027-55.5664 46.9727-54.834 46.8262-53.6621C43.9453-33.3008 40.8203-29.7852 20.5566-27.3926C19.3848-27.2461 18.6035-26.416 18.6035-25.293C18.6035-24.2188 19.3848-23.3398 20.5566-23.2422C40.7715-20.5078 43.8477-17.2852 46.8262 3.07617C46.9727 4.19922 47.8027 4.93164 48.877 4.93164Z"/>
   <path class="monochrome-3 multicolor-3:tintColor hierarchical-3:primary SFSymbolsPreviewWireframe" d="M84.5383-6.06714C87.8198-2.78573 87.8198 2.54245 84.5383 5.82386C81.2569 9.10527 75.9288 9.10527 72.6474 5.82386L2.43165-64.3918C-0.849759-67.6733-0.849759-73.0014 2.43165-76.2828C5.71306-79.5643 11.0412-79.5643 14.3226-76.2828Z" data-clipstroke-keyframes="0 0 0.0 0.5 0.60452837 0 1.0 0.104528375 0.0"/>
   <path class="monochrome-4 multicolor-4:tintColor hierarchical-4:primary SFSymbolsPreviewWireframe" d="M81.0719-2.60066C82.4401-1.23245 82.4401 0.98917 81.0719 2.35738C79.7037 3.72558 77.482 3.72558 76.1138 2.35738L5.89813-67.8583C4.52992-69.2265 4.52992-71.4482 5.89813-72.8164C7.26634-74.1846 9.48796-74.1846 10.8562-72.8164Z" data-clipstroke-keyframes="0 0 0.0 0.5 0.5487678 0 1.0 0.048767686 0.0"/>
  </g>
  <g id="Ultralight-S" transform="matrix(1 0 0 1 517.683 696)">
   <path class="monochrome-0 multicolor-0:tintColor hierarchical-0:secondary SFSymbolsPreviewWireframe" d="M39.9883-64.2168C40.3438-64.2168 40.5459-64.4224 40.5982-64.771C41.3194-70.5703 41.3125-71.7124 48.355-72.5278C48.7525-72.5801 48.9126-72.8276 48.9126-73.1377C48.9126-73.4478 48.7525-73.6953 48.355-73.7476C41.3125-74.563 41.3194-75.7051 40.5982-81.5044C40.5459-81.8564 40.3438-82.062 39.9883-82.062C39.6362-82.062 39.4795-81.8564 39.4273-81.5044C38.7026-75.7051 38.7129-74.563 31.625-73.7476C31.273-73.6953 31.1128-73.4478 31.1128-73.1377C31.1128-72.8276 31.273-72.5801 31.625-72.5278C38.7129-71.7124 38.7026-70.5703 39.4273-64.771C39.4795-64.4224 39.6362-64.2168 39.9883-64.2168Z"/>
   <path class="monochrome-1 multicolor-1:tintColor hierarchical-1:secondary SFSymbolsPreviewWireframe" d="M20.8604-38.7475C21.1421-38.7475 21.3614-38.9214 21.4136-39.2031C23.0952-49.499 22.9444-49.1392 33.4038-51.2353C33.6822-51.2876 33.9048-51.4614 33.9048-51.7886C33.9048-52.1191 33.6822-52.2476 33.4038-52.2998C22.9444-54.3936 23.0918-54.0191 21.4136-64.3286C21.3614-64.6592 21.1421-64.833 20.8604-64.833C20.5752-64.833 20.356-64.6592 20.3037-64.3252C18.6323-54.0747 18.8989-54.3926 8.31348-52.2998C8.03516-52.2442 7.8125-52.1191 7.8125-51.7886C7.8125-51.458 8.03516-51.2876 8.32716-51.2353C18.9058-49.1699 18.6323-49.4604 20.3037-39.21C20.356-38.9214 20.5752-38.7475 20.8604-38.7475Z"/>
   <path class="monochrome-2 multicolor-2:tintColor hierarchical-2:secondary SFSymbolsPreviewWireframe" d="M46.8335 4.52295C47.541 4.52295 47.9624 4.06299 48.0215 3.48486C50.1724-20.1006 52.4346-21.7578 75.1958-23.6963C75.8228-23.7485 76.2442-24.1733 76.2442-24.7935C76.2442-25.417 75.8228-25.793 75.1958-25.8486C52.4346-27.7871 50.1724-29.4409 48.0215-53.0718C47.9624-53.6079 47.541-54.0679 46.8335-54.0679C46.1226-54.0679 45.7012-53.6079 45.6455-53.0718C43.4912-29.4409 41.229-27.7871 18.4678-25.8486C17.8408-25.793 17.4229-25.417 17.4229-24.7935C17.4229-24.1733 17.8408-23.7485 18.4678-23.6963C41.1348-21.0073 43.1665-20.0552 45.6455 3.48486C45.7012 4.06299 46.1226 4.52295 46.8335 4.52295Z"/>
   <path class="monochrome-3 multicolor-3:tintColor hierarchical-3:primary SFSymbolsPreviewWireframe" d="M79.7142-3.06064C81.2368-1.53808 81.2368 0.934172 79.7142 2.45673C78.1917 3.97929 75.7194 3.97929 74.1969 2.45673L4.34178-67.3983C2.81922-68.9209 2.81922-71.3932 4.34178-72.9157C5.86434-74.4383 8.33659-74.4383 9.85914-72.9157Z" data-clipstroke-keyframes="0 0 0.0 0.5 0.55392593 0 1.0 0.053925958 0.0"/>
   <path class="monochrome-4 multicolor-4:tintColor hierarchical-4:primary SFSymbolsPreviewWireframe" d="M77.6633-1.00975C78.054-0.619106 78.054 0.0152006 77.6633 0.405845C77.2727 0.796489 76.6384 0.796489 76.2477 0.405845L6.39266-69.4492C6.00202-69.8399 6.00202-70.4742 6.39266-70.8648C6.78331-71.2555 7.41761-71.2555 7.80826-70.8648Z" data-clipstroke-keyframes="0 0 0.0 0.5 0.5139301 0 1.0 0.013930082 0.0"/>
  </g>
 </g>
</svg>
