<?xml version="1.0" encoding="UTF-8"?>
<svg width="1024px" height="1024px" viewBox="0 0 1024 1024" version="1.1" xmlns="http://www.w3.org/2000/svg" xmlns:xlink="http://www.w3.org/1999/xlink">
    <title>2 - Layer</title>
    <g id="Template---App-Icons" stroke="none" stroke-width="1" fill="none" fill-rule="evenodd">
        <g id="Baby-Cork:-Cork" fill="color(display-p3 0.765 0.584 0.388)" transform="translate(161, 164.4489)">
            <path d="M270.008184,-2.93285436e-14 L431.991816,-2.75148753e-14 C438.678207,-2.89486062e-14 441.102854,0.696192084 443.547298,2.00349528 C445.991743,3.31079847 447.910157,5.22921278 449.21746,7.67365722 C450.524763,10.1181017 451.220955,12.5427485 451.220955,19.229139 L451.220955,154.98888 C451.220955,161.675271 450.524763,164.099918 449.21746,166.544362 C447.910157,168.988807 445.991743,170.907221 443.547298,172.214524 C441.102854,173.521827 438.678207,174.218019 431.991816,174.218019 L270.008184,174.218019 C263.321793,174.218019 260.897146,173.521827 258.452702,172.214524 C256.008257,170.907221 254.089843,168.988807 252.78254,166.544362 C251.475237,164.099918 250.779045,161.675271 250.779045,154.98888 L250.779045,19.229139 C250.779045,12.5427485 251.475237,10.1181017 252.78254,7.67365722 C254.089843,5.22921278 256.008257,3.31079847 258.452702,2.00349528 C260.897146,0.696192084 263.321793,-2.78948127e-14 270.008184,-2.93285436e-14 Z" id="Cork"></path>
        </g>
    </g>
</svg>