<?xml version="1.0" encoding="UTF-8"?>
<svg width="1024px" height="1024px" viewBox="0 0 1024 1024" version="1.1" xmlns="http://www.w3.org/2000/svg" xmlns:xlink="http://www.w3.org/1999/xlink">
    <title>3 - Layer</title>
    <g id="Template---App-Icons" stroke="none" stroke-width="1" fill="none" fill-rule="evenodd">
        <g id="Baby-Cork:-Body" fill="color(display-p3 0.621 0.621 0.621)" stroke="color(display-p3 0.592 0.592 0.592)" transform="translate(161, 164.4489)">
            <path d="M479.104697,94.326822 C481.462007,95.5875253 483.309049,97.4345666 484.569752,99.7918768 L484.73832,100.114073 C486.035671,102.652402 486.514154,105.313214 486.514154,111.111559 L486.514154,190.787418 C486.514154,196.80806 486.011424,199.411407 484.569752,202.1071 C483.309049,204.46441 481.462007,206.311451 479.104697,207.572155 L478.782501,207.740723 C476.244172,209.038074 473.58336,209.516557 467.785015,209.516557 L465.49203,209.51642 L464.986792,209.51639 L464.992027,210.0216 L465.038263,214.484222 L465.096585,218.751677 L465.13397,221.158048 C465.677633,254.787126 467.023725,292.282959 469.503282,328.500338 C473.06877,380.57926 478.430111,421.07399 485.928706,444.867735 C503.372927,500.215753 525.144623,531.643308 575.407776,577.13318 L582.146286,583.200798 L584.176628,585.044489 L586.285314,586.975971 C613.597534,612.113737 636.951757,638.615135 657.158579,671.529146 C685.474618,717.651907 701.5,768.08479 701.5,823.01473 L701.5,1459.79985 C701.5,1485.70692 691.209947,1510.55366 672.894557,1528.86836 C654.580642,1547.18705 629.740113,1557.47771 603.836653,1557.47771 L98.1633469,1557.47771 C72.2598868,1557.47771 47.4193581,1547.18705 29.1054953,1528.86841 C10.7900531,1510.55366 0.5,1485.70692 0.5,1459.79985 L0.5,823.01473 C0.5,766.078795 17.6939389,714.041937 47.8791516,666.673072 C59.5921567,648.292159 72.8572518,631.276459 87.3739857,615.347714 C98.0856769,603.594121 108.117354,593.818095 119.854575,583.200021 L123.663381,579.771983 C176.229461,532.617448 198.325878,501.171403 216.071291,444.867745 C224.406984,418.417808 230.076069,371.534225 233.56636,311.580038 C234.833465,289.814459 235.734361,267.560304 236.328553,245.74234 C236.723495,231.24054 236.930677,219.025148 237.009565,210.021137 L237.013984,209.5168 L236.509628,209.516756 L234.215029,209.516557 C228.194343,209.516557 225.590996,209.013827 222.895303,207.572155 C220.537993,206.311451 218.690951,204.46441 217.430248,202.1071 L217.26168,201.784904 C215.964329,199.246575 215.485846,196.585763 215.485846,190.787418 L215.485846,111.111559 C215.485846,105.090917 215.988576,102.48757 217.430248,99.7918768 C218.690951,97.4345666 220.537993,95.5875253 222.895303,94.326822 L223.217499,94.1582536 C225.755828,92.8609029 228.41664,92.3824201 234.214985,92.3824201 L468.651655,92.3824201 C474.071038,92.4390996 476.525996,92.9477176 479.104697,94.326822 Z" id="Body"></path>
        </g>
    </g>
</svg>