<?xml version="1.0" encoding="UTF-8"?>
<svg width="1024px" height="1024px" viewBox="0 0 1024 1024" version="1.1" xmlns="http://www.w3.org/2000/svg" xmlns:xlink="http://www.w3.org/1999/xlink">
    <title>4 - Layer</title>
    <g id="Template---App-Icons" stroke="none" stroke-width="1" fill="none" fill-rule="evenodd">
        <g id="Baby-Cork:-Rim" fill="color(display-p3 0.620 0.620 0.620)" transform="translate(161, 164.4489)">
            <path d="M234.214985,91.8824201 L467.785015,91.8824201 C474.471405,91.8824201 476.896052,92.5786122 479.340497,93.8859154 C481.784941,95.1932186 483.703355,97.1116329 485.010659,99.5560774 C486.317962,102.000522 487.014154,104.425169 487.014154,111.111559 L487.014154,190.787418 C487.014154,197.473808 486.317962,199.898455 485.010659,202.342899 C483.703355,204.787344 481.784941,206.705758 479.340497,208.013061 C476.896052,209.320364 474.471405,210.016557 467.785015,210.016557 L234.214985,210.016557 C227.528595,210.016557 225.103948,209.320364 222.659503,208.013061 C220.215059,206.705758 218.296645,204.787344 216.989341,202.342899 C215.682038,199.898455 214.985846,197.473808 214.985846,190.787418 L214.985846,111.111559 C214.985846,104.425169 215.682038,102.000522 216.989341,99.5560774 C218.296645,97.1116329 220.215059,95.1932186 222.659503,93.8859154 C225.103948,92.5786122 227.528595,91.8824201 234.214985,91.8824201 Z" id="Rim"></path>
        </g>
    </g>
</svg>