<?xml version="1.0" encoding="UTF-8"?>
<svg width="1024px" height="1024px" viewBox="0 0 1024 1024" version="1.1" xmlns="http://www.w3.org/2000/svg" xmlns:xlink="http://www.w3.org/1999/xlink">
    <title>5 - Layer</title>
    <g id="Template---App-Icons" stroke="none" stroke-width="1" fill="none" fill-rule="evenodd">
        <g id="Baby-Cork:-Face" fill="color(display-p3 0.000 0.000 0.000)" transform="translate(161, 164.4489)">
            <path d="M290.101966,758.400685 C288.729684,755.115313 288.921469,751.384267 290.623322,748.258629 C292.327037,745.131018 295.358346,742.948001 298.862599,742.322874 C302.052177,741.609005 305.452159,741.001626 308.50395,740.45735 C313.74171,739.522617 318.962712,742.190749 321.271572,746.984709 C326.501884,758.309972 337.962393,765.866721 350.940419,765.866721 C363.929616,765.866721 375.399435,758.296168 380.747052,747.012317 C383.014948,742.293293 388.150299,739.66263 393.306132,740.583559 C396.370957,740.991766 399.759767,741.597173 402.969827,742.169057 C406.537387,742.806016 409.622694,745.032418 411.354339,748.217216 C413.087846,751.402015 413.277768,755.20011 411.873832,758.54267 C401.634784,782.516416 377.926147,798.85256 350.940419,798.85256 C323.921175,798.85256 300.188331,782.476975 290.101966,758.400685 Z M500.97195,738.677512 C530.243041,738.677512 553.97195,714.948604 553.97195,685.677512 C553.97195,656.40642 530.243041,632.677512 500.97195,632.677512 C471.700858,632.677512 447.97195,656.40642 447.97195,685.677512 C447.97195,714.948604 471.700858,738.677512 500.97195,738.677512 Z M201.02805,738.677512 C230.299142,738.677512 254.02805,714.948604 254.02805,685.677512 C254.02805,656.40642 230.299142,632.677512 201.02805,632.677512 C171.756959,632.677512 148.02805,656.40642 148.02805,685.677512 C148.02805,714.948604 171.756959,738.677512 201.02805,738.677512 Z" id="Face"></path>
        </g>
    </g>
</svg>