<?xml version="1.0" encoding="UTF-8"?>
<!--Generator: Apple Native CoreSVG 232.5-->
<!DOCTYPE svg
PUBLIC "-//W3C//DTD SVG 1.1//EN"
       "http://www.w3.org/Graphics/SVG/1.1/DTD/svg11.dtd">
<svg version="1.1" xmlns="http://www.w3.org/2000/svg" xmlns:xlink="http://www.w3.org/1999/xlink" width="3300" height="2200">
 <!--glyph: "", point size: 100.0, font version: "19.2d2e1", template writer version: "128"-->
 <style>.monochrome-0 {-sfsymbols-motion-group:1}
.monochrome-1 {opacity:0.0;-sfsymbols-clear-behind:true;-sfsymbols-motion-group:0}
.monochrome-2 {-sfsymbols-motion-group:0;-sfsymbols-always-pulses:true}
.monochrome-3 {opacity:0.0;-sfsymbols-clear-behind:true;-sfsymbols-motion-group:0;-sfsymbols-always-pulses:true}

.multicolor-0:tintColor {-sfsymbols-motion-group:1}
.multicolor-1:tintColor {opacity:0.0;-sfsymbols-clear-behind:true;-sfsymbols-motion-group:0}
.multicolor-2:systemOrangeColor {-sfsymbols-motion-group:0;-sfsymbols-always-pulses:true}
.multicolor-3:white {-sfsymbols-motion-group:0;-sfsymbols-always-pulses:true}

.hierarchical-0:secondary {-sfsymbols-motion-group:1}
.hierarchical-1:primary {opacity:0.0;-sfsymbols-clear-behind:true;-sfsymbols-motion-group:0}
.hierarchical-2:primary {-sfsymbols-motion-group:0}
.hierarchical-3:primary {opacity:0.0;-sfsymbols-clear-behind:true;-sfsymbols-motion-group:0}

.SFSymbolsPreviewWireframe {fill:none;opacity:1.0;stroke:black;stroke-width:0.5}
</style>
 <g id="Notes">
  <rect height="2200" id="artboard" style="fill:white;opacity:1" width="3300" x="0" y="0"/>
  <line style="fill:none;stroke:black;opacity:1;stroke-width:0.5;" x1="263" x2="3036" y1="292" y2="292"/>
  <text style="stroke:none;fill:black;font-family:sans-serif;font-size:13;font-weight:bold;" transform="matrix(1 0 0 1 263 322)">Weight/Scale Variations</text>
  <text style="stroke:none;fill:black;font-family:sans-serif;font-size:13;text-anchor:middle;" transform="matrix(1 0 0 1 559.711 322)">Ultralight</text>
  <text style="stroke:none;fill:black;font-family:sans-serif;font-size:13;text-anchor:middle;" transform="matrix(1 0 0 1 856.422 322)">Thin</text>
  <text style="stroke:none;fill:black;font-family:sans-serif;font-size:13;text-anchor:middle;" transform="matrix(1 0 0 1 1153.13 322)">Light</text>
  <text style="stroke:none;fill:black;font-family:sans-serif;font-size:13;text-anchor:middle;" transform="matrix(1 0 0 1 1449.84 322)">Regular</text>
  <text style="stroke:none;fill:black;font-family:sans-serif;font-size:13;text-anchor:middle;" transform="matrix(1 0 0 1 1746.56 322)">Medium</text>
  <text style="stroke:none;fill:black;font-family:sans-serif;font-size:13;text-anchor:middle;" transform="matrix(1 0 0 1 2043.27 322)">Semibold</text>
  <text style="stroke:none;fill:black;font-family:sans-serif;font-size:13;text-anchor:middle;" transform="matrix(1 0 0 1 2339.98 322)">Bold</text>
  <text style="stroke:none;fill:black;font-family:sans-serif;font-size:13;text-anchor:middle;" transform="matrix(1 0 0 1 2636.69 322)">Heavy</text>
  <text style="stroke:none;fill:black;font-family:sans-serif;font-size:13;text-anchor:middle;" transform="matrix(1 0 0 1 2933.4 322)">Black</text>
  <line style="fill:none;stroke:black;opacity:1;stroke-width:0.5;" x1="263" x2="3036" y1="1903" y2="1903"/>
  <g transform="matrix(0.2 0 0 0.2 263 1933)">
   <path d="m46.2402 4.15039c21.5332 0 39.4531-17.8711 39.4531-39.4043s-17.9688-39.4043-39.502-39.4043c-21.4844 0-39.3555 17.8711-39.3555 39.4043s17.9199 39.4043 39.4043 39.4043Zm0-7.42188c-17.7246 0-31.8848-14.209-31.8848-31.9824s14.1113-31.9824 31.8359-31.9824c17.7734 0 32.0312 14.209 32.0312 31.9824s-14.209 31.9824-31.9824 31.9824Zm-17.9688-31.9824c0 2.14844 1.51367 3.61328 3.75977 3.61328h10.498v10.5957c0 2.19727 1.46484 3.71094 3.61328 3.71094 2.24609 0 3.71094-1.51367 3.71094-3.71094v-10.5957h10.5957c2.19727 0 3.71094-1.46484 3.71094-3.61328 0-2.19727-1.51367-3.71094-3.71094-3.71094h-10.5957v-10.5469c0-2.24609-1.46484-3.75977-3.71094-3.75977-2.14844 0-3.61328 1.51367-3.61328 3.75977v10.5469h-10.498c-2.24609 0-3.75977 1.51367-3.75977 3.71094Z"/>
  </g>
  <g transform="matrix(0.2 0 0 0.2 281.506 1933)">
   <path d="m58.5449 14.5508c27.2461 0 49.8047-22.6074 49.8047-49.8047 0-27.2461-22.6074-49.8047-49.8535-49.8047-27.1973 0-49.7559 22.5586-49.7559 49.8047 0 27.1973 22.6074 49.8047 49.8047 49.8047Zm0-8.30078c-23.0469 0-41.4551-18.457-41.4551-41.5039s18.3594-41.5039 41.4062-41.5039 41.5527 18.457 41.5527 41.5039-18.457 41.5039-41.5039 41.5039Zm-22.6562-41.5039c0 2.39258 1.66016 4.00391 4.15039 4.00391h14.3555v14.4043c0 2.44141 1.66016 4.15039 4.05273 4.15039 2.44141 0 4.15039-1.66016 4.15039-4.15039v-14.4043h14.4043c2.44141 0 4.15039-1.61133 4.15039-4.00391 0-2.44141-1.70898-4.15039-4.15039-4.15039h-14.4043v-14.3555c0-2.49023-1.70898-4.19922-4.15039-4.19922-2.39258 0-4.05273 1.70898-4.05273 4.19922v14.3555h-14.3555c-2.49023 0-4.15039 1.70898-4.15039 4.15039Z"/>
  </g>
  <g transform="matrix(0.2 0 0 0.2 304.924 1933)">
   <path d="m74.8535 28.3203c34.8145 0 63.623-28.8086 63.623-63.5742 0-34.8145-28.8574-63.623-63.6719-63.623-34.7656 0-63.5254 28.8086-63.5254 63.623 0 34.7656 28.8086 63.5742 63.5742 63.5742Zm0-9.08203c-30.1758 0-54.4434-24.3164-54.4434-54.4922 0-30.2246 24.2188-54.4922 54.3945-54.4922 30.2246 0 54.541 24.2676 54.541 54.4922 0 30.1758-24.2676 54.4922-54.4922 54.4922Zm-28.8574-54.4922c0 2.58789 1.85547 4.39453 4.58984 4.39453h19.7266v19.7754c0 2.68555 1.85547 4.58984 4.44336 4.58984 2.68555 0 4.54102-1.85547 4.54102-4.58984v-19.7754h19.7754c2.68555 0 4.58984-1.80664 4.58984-4.39453 0-2.73438-1.85547-4.58984-4.58984-4.58984h-19.7754v-19.7266c0-2.73438-1.85547-4.63867-4.54102-4.63867-2.58789 0-4.44336 1.9043-4.44336 4.63867v19.7266h-19.7266c-2.73438 0-4.58984 1.85547-4.58984 4.58984Z"/>
  </g>
  <text style="stroke:none;fill:black;font-family:sans-serif;font-size:13;font-weight:bold;" transform="matrix(1 0 0 1 263 1953)">Design Variations</text>
  <text style="stroke:none;fill:black;font-family:sans-serif;font-size:13;" transform="matrix(1 0 0 1 263 1971)">Symbols are supported in up to nine weights and three scales.</text>
  <text style="stroke:none;fill:black;font-family:sans-serif;font-size:13;" transform="matrix(1 0 0 1 263 1989)">For optimal layout with text and other symbols, vertically align</text>
  <text style="stroke:none;fill:black;font-family:sans-serif;font-size:13;" transform="matrix(1 0 0 1 263 2007)">symbols with the adjacent text.</text>
  <line style="fill:none;stroke:#00AEEF;stroke-width:0.5;opacity:1.0;" x1="776" x2="776" y1="1919" y2="1933"/>
  <g transform="matrix(0.2 0 0 0.2 776 1933)">
   <path d="m16.5527 0.78125c2.58789 0 3.85742-0.976562 4.78516-3.71094l6.29883-17.2363h28.8086l6.29883 17.2363c0.927734 2.73438 2.19727 3.71094 4.73633 3.71094 2.58789 0 4.24805-1.5625 4.24805-4.00391 0-0.830078-0.146484-1.61133-0.537109-2.63672l-22.9004-60.9863c-1.12305-2.97852-3.125-4.49219-6.25-4.49219-3.02734 0-5.07812 1.46484-6.15234 4.44336l-22.9004 61.084c-0.390625 1.02539-0.537109 1.80664-0.537109 2.63672 0 2.44141 1.5625 3.95508 4.10156 3.95508Zm13.4766-28.3691 11.8652-32.8613h0.244141l11.8652 32.8613Z"/>
  </g>
  <line style="fill:none;stroke:#00AEEF;stroke-width:0.5;opacity:1.0;" x1="792.836" x2="792.836" y1="1919" y2="1933"/>
  <text style="stroke:none;fill:black;font-family:sans-serif;font-size:13;font-weight:bold;" transform="matrix(1 0 0 1 776 1953)">Margins</text>
  <text style="stroke:none;fill:black;font-family:sans-serif;font-size:13;" transform="matrix(1 0 0 1 776 1971)">Leading and trailing margins on the left and right side of each symbol</text>
  <text style="stroke:none;fill:black;font-family:sans-serif;font-size:13;" transform="matrix(1 0 0 1 776 1989)">can be adjusted by modifying the x-location of the margin guidelines.</text>
  <text style="stroke:none;fill:black;font-family:sans-serif;font-size:13;" transform="matrix(1 0 0 1 776 2007)">Modifications are automatically applied proportionally to all</text>
  <text style="stroke:none;fill:black;font-family:sans-serif;font-size:13;" transform="matrix(1 0 0 1 776 2025)">scales and weights.</text>
  <g transform="matrix(0.2 0 0 0.2 1289 1933)">
   <path d="m14.209 9.32617 8.49609 8.54492c4.29688 4.3457 9.22852 4.05273 13.8672-1.07422l53.4668-58.9355-4.83398-4.88281-53.0762 58.3984c-1.75781 2.00195-3.41797 2.49023-5.76172 0.146484l-5.85938-5.81055c-2.34375-2.29492-1.80664-4.00391 0.195312-5.81055l57.373-54.0039-4.88281-4.83398-57.959 54.4434c-4.93164 4.58984-5.32227 9.47266-1.02539 13.8184Zm32.0801-90.9668c-2.09961 2.05078-2.24609 4.93164-1.07422 6.88477 1.17188 1.80664 3.4668 2.97852 6.68945 2.14844 7.32422-1.70898 14.9414-2.00195 22.0703 2.68555l-2.92969 7.27539c-1.70898 4.15039-0.830078 7.08008 1.85547 9.81445l11.4746 11.5723c2.44141 2.44141 4.49219 2.53906 7.32422 2.05078l5.32227-0.976562 3.32031 3.36914-0.195312 2.7832c-0.195312 2.49023 0.439453 4.39453 2.88086 6.78711l3.80859 3.71094c2.39258 2.39258 5.46875 2.53906 7.8125 0.195312l14.5508-14.5996c2.34375-2.34375 2.24609-5.32227-0.146484-7.71484l-3.85742-3.80859c-2.39258-2.39258-4.24805-3.17383-6.64062-2.97852l-2.88086 0.244141-3.22266-3.17383 1.2207-5.61523c0.634766-2.83203-0.146484-5.0293-3.07617-7.95898l-10.9863-10.9375c-16.6992-16.6016-38.8672-16.2109-53.3203-1.75781Zm7.4707 1.85547c12.1582-8.88672 28.6133-7.37305 39.7461 3.75977l12.1582 12.0605c1.17188 1.17188 1.36719 2.09961 1.02539 3.80859l-1.61133 7.42188 7.51953 7.42188 4.93164-0.292969c1.26953-0.0488281 1.66016 0.0488281 2.63672 1.02539l2.88086 2.88086-12.207 12.207-2.88086-2.88086c-0.976562-0.976562-1.12305-1.36719-1.07422-2.68555l0.341797-4.88281-7.4707-7.42188-7.61719 1.26953c-1.61133 0.341797-2.34375 0.195312-3.56445-0.976562l-10.0098-10.0098c-1.26953-1.17188-1.41602-2.00195-0.634766-3.85742l4.39453-10.4492c-7.8125-7.27539-17.9688-10.4004-28.125-7.42188-0.78125 0.195312-1.07422-0.439453-0.439453-0.976562Z"/>
  </g>
  <text style="stroke:none;fill:black;font-family:sans-serif;font-size:13;font-weight:bold;" transform="matrix(1 0 0 1 1289 1953)">Exporting</text>
  <text style="stroke:none;fill:black;font-family:sans-serif;font-size:13;" transform="matrix(1 0 0 1 1289 1971)">Symbols should be outlined when exporting to ensure the</text>
  <text style="stroke:none;fill:black;font-family:sans-serif;font-size:13;" transform="matrix(1 0 0 1 1289 1989)">design is preserved when submitting to Xcode.</text>
  <text id="template-version" style="stroke:none;fill:black;font-family:sans-serif;font-size:13;text-anchor:end;" transform="matrix(1 0 0 1 3036 1933)">Template v.5.0</text>
  <text style="stroke:none;fill:black;font-family:sans-serif;font-size:13;text-anchor:end;" transform="matrix(1 0 0 1 3036 1951)">Requires Xcode 15 or greater</text>
  <text id="descriptive-name" style="stroke:none;fill:black;font-family:sans-serif;font-size:13;text-anchor:end;" transform="matrix(1 0 0 1 3036 1969)">Generated from </text>
  <text style="stroke:none;fill:black;font-family:sans-serif;font-size:13;text-anchor:end;" transform="matrix(1 0 0 1 3036 1987)">Typeset at 100.0 points</text>
  <text style="stroke:none;fill:black;font-family:sans-serif;font-size:13;" transform="matrix(1 0 0 1 263 726)">Small</text>
  <text style="stroke:none;fill:black;font-family:sans-serif;font-size:13;" transform="matrix(1 0 0 1 263 1156)">Medium</text>
  <text style="stroke:none;fill:black;font-family:sans-serif;font-size:13;" transform="matrix(1 0 0 1 263 1586)">Large</text>
 </g>
 <g id="Guides">
  <g id="H-reference" style="fill:#27AAE1;stroke:none;" transform="matrix(1 0 0 1 339 696)">
   <path d="M0.993654 0L3.63775 0L29.3281-67.1323L30.0303-67.1323L30.0303-70.459L28.1226-70.459ZM11.6885-24.4799L46.9815-24.4799L46.2315-26.7285L12.4385-26.7285ZM55.1196 0L57.7637 0L30.6382-70.459L29.4326-70.459L29.4326-67.1323Z"/>
  </g>
  <line id="Baseline-S" style="fill:none;stroke:#27AAE1;opacity:1;stroke-width:0.5;" x1="263" x2="3036" y1="696" y2="696"/>
  <line id="Capline-S" style="fill:none;stroke:#27AAE1;opacity:1;stroke-width:0.5;" x1="263" x2="3036" y1="625.541" y2="625.541"/>
  <g id="H-reference" style="fill:#27AAE1;stroke:none;" transform="matrix(1 0 0 1 339 1126)">
   <path d="M0.993654 0L3.63775 0L29.3281-67.1323L30.0303-67.1323L30.0303-70.459L28.1226-70.459ZM11.6885-24.4799L46.9815-24.4799L46.2315-26.7285L12.4385-26.7285ZM55.1196 0L57.7637 0L30.6382-70.459L29.4326-70.459L29.4326-67.1323Z"/>
  </g>
  <line id="Baseline-M" style="fill:none;stroke:#27AAE1;opacity:1;stroke-width:0.5;" x1="263" x2="3036" y1="1126" y2="1126"/>
  <line id="Capline-M" style="fill:none;stroke:#27AAE1;opacity:1;stroke-width:0.5;" x1="263" x2="3036" y1="1055.54" y2="1055.54"/>
  <g id="H-reference" style="fill:#27AAE1;stroke:none;" transform="matrix(1 0 0 1 339 1556)">
   <path d="M0.993654 0L3.63775 0L29.3281-67.1323L30.0303-67.1323L30.0303-70.459L28.1226-70.459ZM11.6885-24.4799L46.9815-24.4799L46.2315-26.7285L12.4385-26.7285ZM55.1196 0L57.7637 0L30.6382-70.459L29.4326-70.459L29.4326-67.1323Z"/>
  </g>
  <line id="Baseline-L" style="fill:none;stroke:#27AAE1;opacity:1;stroke-width:0.5;" x1="263" x2="3036" y1="1556" y2="1556"/>
  <line id="Capline-L" style="fill:none;stroke:#27AAE1;opacity:1;stroke-width:0.5;" x1="263" x2="3036" y1="1485.54" y2="1485.54"/>
  <line id="left-margin-Ultralight-S" style="fill:none;stroke:#00AEEF;stroke-width:0.5;opacity:1.0;" x1="519.844" x2="519.844" y1="600.785" y2="720.121"/>
  <line id="right-margin-Ultralight-S" style="fill:none;stroke:#FF3B30;stroke-width:0.5;opacity:1.0;" x1="599.579" x2="599.579" y1="600.785" y2="720.121"/>
  <line id="left-margin-Regular-S" style="fill:none;stroke:#00AEEF;stroke-width:0.5;opacity:1.0;" x1="1403.82" x2="1403.82" y1="600.785" y2="720.121"/>
  <line id="right-margin-Regular-S" style="fill:none;stroke:#FF3B30;stroke-width:0.5;opacity:1.0;" x1="1495.86" x2="1495.86" y1="600.785" y2="720.121"/>
  <line id="left-margin-Black-S" style="fill:none;stroke:#00AEEF;stroke-width:0.5;opacity:1.0;" x1="2885.16" x2="2885.16" y1="600.785" y2="720.121"/>
  <line id="right-margin-Black-S" style="fill:none;stroke:#FF3B30;stroke-width:0.5;opacity:1.0;" x1="2981.64" x2="2981.64" y1="600.785" y2="720.121"/>
 </g>
 <g id="Symbols">
  <g id="Black-S" transform="matrix(1 0 0 1 2885.16 696)">
   <path class="monochrome-0 multicolor-0:tintColor hierarchical-0:secondary SFSymbolsPreviewWireframe" d="M15.5762-23.6816C15.5762-19.1895 18.7012-16.1621 23.2422-16.1621L42.5293-16.1621L42.5293 3.125C42.5293 6.15234 46.6797 14.3066 48.2422 14.3066C49.8047 14.3066 53.9551 6.15234 53.9551 3.125L53.9551-16.1621L73.2422-16.1621C77.7832-16.1621 80.9082-19.1895 80.9082-23.6816C80.9082-32.666 73.9746-40.8691 62.9395-45.2148L61.7188-64.0625C68.0176-67.627 72.168-71.0938 74.0723-73.4375C75.3418-75 76.0254-76.8066 76.0254-78.4668C76.0254-81.9336 73.3398-84.4238 69.6289-84.4238L26.8555-84.4238C23.1445-84.4238 20.459-81.9336 20.459-78.4668C20.459-76.8066 21.1426-75 22.4121-73.4375C24.3164-71.0938 28.4668-67.627 34.7656-64.0625L33.5449-45.2148C22.5098-40.8691 15.5762-32.666 15.5762-23.6816Z"/>
   <path class="monochrome-1 multicolor-1:tintColor hierarchical-1:primary SFSymbolsPreviewWireframe" d="M86.8321 20.2949C101.774 20.2949 114.127 7.89255 114.127-7.04885C114.127-21.9903 101.774-34.2949 86.8321-34.2949C71.8907-34.2949 59.5372-21.9903 59.5372-7.04885C59.5372 7.89255 71.8907 20.2949 86.8321 20.2949Z"/>
   <path class="monochrome-2 multicolor-2:systemOrangeColor hierarchical-2:primary SFSymbolsPreviewWireframe" d="M86.8321 13.9473C98.3068 13.9473 107.78 4.37695 107.78-7.04885C107.78-18.4746 98.3068-27.9472 86.8321-27.9472C75.3575-27.9472 65.8848-18.4746 65.8848-7.04885C65.8848 4.37695 75.3575 13.9473 86.8321 13.9473Z"/>
   <path class="monochrome-3 multicolor-3:white hierarchical-3:primary SFSymbolsPreviewWireframe" d="M85.709-2.45895C83.5118-2.45895 81.4122-3.53325 81.4122-5.63285C81.4122-5.68165 81.4122-5.77925 81.4122-5.82815C81.4122-7.34175 82.584-8.51365 84.4395-9.83205C86.3926-11.1504 87.5157-11.9805 87.5157-12.8593C87.5157-13.543 87.0762-13.9824 86.3926-13.9824C85.7579-13.9824 85.2696-13.6894 84.4395-12.957C83.8536-12.4199 82.9258-11.6386 81.1192-11.6386C78.2872-11.6386 76.9688-13.25 76.9688-15.0078C76.9688-19.0118 82.0469-21.3066 86.9297-21.3066C92.7888-21.3066 97.1348-17.9375 97.1348-13.3964C97.1348-9.58785 94.3518-8.70895 92.252-7.29295C91.4219-6.75585 90.6895-6.07225 90.25-5.14455C89.4688-3.28905 87.5645-2.45895 85.709-2.45895ZM85.6114 6.91605C83.0723 6.91605 81.168 5.54885 81.168 3.10745C81.168 0.76365 83.0723-0.65235 85.6114-0.65235C88.2481-0.65235 90.0547 0.76365 90.0547 3.10745C90.0547 5.54885 88.2481 6.91605 85.6114 6.91605Z"/>
  </g>
  <g id="Regular-S" transform="matrix(1 0 0 1 1403.82 696)">
   <path class="monochrome-0 multicolor-0:tintColor hierarchical-0:secondary SFSymbolsPreviewWireframe" d="M15.5762-23.2422C15.5762-19.7266 17.9199-17.3828 21.582-17.3828L42.2363-17.3828L42.2363-0.976562C42.2363 5.51758 44.9707 10.8887 45.9961 10.8887C47.0703 10.8887 49.8047 5.51758 49.8047-0.976562L49.8047-17.3828L70.4102-17.3828C74.1211-17.3828 76.4648-19.7266 76.4648-23.2422C76.4648-31.2988 69.9707-39.9414 58.9844-43.9941L57.7148-61.4258C63.7695-64.7949 68.3594-68.4082 70.3125-70.8984C71.4355-72.3145 71.9238-73.6816 71.9238-74.9512C71.9238-77.4414 69.9707-79.2969 67.1387-79.2969L24.9023-79.2969C22.0215-79.2969 20.1172-77.4414 20.1172-74.9512C20.1172-73.6816 20.6055-72.3145 21.6797-70.8984C23.6328-68.4082 28.2227-64.7949 34.2773-61.4258L33.0566-43.9941C22.0703-39.9414 15.5762-31.2988 15.5762-23.2422Z"/>
   <path class="monochrome-1 multicolor-1:tintColor hierarchical-1:primary SFSymbolsPreviewWireframe" d="M82.836 18.3906C96.6546 18.3906 108.227 6.8184 108.227-7C108.227-20.916 96.7516-32.3906 82.836-32.3906C68.8711-32.3906 57.4454-20.916 57.4454-7C57.4454 6.9649 68.8711 18.3906 82.836 18.3906Z"/>
   <path class="monochrome-2 multicolor-2:systemOrangeColor hierarchical-2:primary SFSymbolsPreviewWireframe" d="M82.836 12.6777C93.4806 12.6777 102.514 3.7422 102.514-7C102.514-17.791 93.6266-26.6777 82.836-26.6777C72.045-26.6777 63.1094-17.791 63.1094-7C63.1094 3.8399 72.045 12.6777 82.836 12.6777Z"/>
   <path class="monochrome-3 multicolor-3:white hierarchical-3:primary SFSymbolsPreviewWireframe" d="M82.4942-2.0684C81.0782-2.0684 80.2969-2.8496 80.2969-4.2656C80.2969-4.3144 80.2969-4.3633 80.2969-4.3633C80.2969-6.8535 81.7129-8.123 83.3243-9.2461C85.375-10.6621 86.4981-11.4434 86.4981-13.0547C86.4981-14.6172 85.2286-15.6426 83.3731-15.6426C81.6641-15.6426 80.7364-14.9101 79.8575-14.0312C79.0762-13.2988 78.4903-12.5664 77.4161-12.5664C76.0977-12.5664 75.2676-13.3965 75.2676-14.666C75.2676-17.791 79.3204-19.793 83.3731-19.793C88.1582-19.793 91.3806-17.1562 91.3806-13.2988C91.3806-10.2715 89.4278-8.9531 87.2305-7.3418C85.7657-6.2187 84.9356-5.5351 84.7891-4.0215C84.6426-2.8008 83.959-2.0684 82.4942-2.0684ZM82.4942 5.6465C80.834 5.6465 79.5157 4.2793 79.5157 2.6191C79.5157 1.0078 80.834-0.3594 82.4942-0.3594C84.1543-0.3594 85.4727 1.0078 85.4727 2.6191C85.4727 4.2793 84.1543 5.6465 82.4942 5.6465Z"/>
  </g>
  <g id="Ultralight-S" transform="matrix(1 0 0 1 519.844 696)">
   <path class="monochrome-0 multicolor-0:tintColor hierarchical-0:secondary SFSymbolsPreviewWireframe" d="M13.3965-24.1958C13.3965-22.2241 14.9229-20.9248 17.2227-20.9248L38.2857-20.9248L38.2857 3.38278C38.2857 6.33495 39.3399 9.07228 39.8658 9.07228C40.3951 9.07228 41.4493 6.33495 41.4493 3.38278L41.4493-20.9248L62.5089-20.9248C64.8575-20.9248 66.3385-22.2241 66.3385-24.1958C66.3385-32.5703 59.9351-40.2593 50.1295-43.54L48.9508-61.7436C52.4625-64.0684 57.0523-67.5454 59.0963-70.4443C59.7198-71.4063 60.1173-72.2739 60.1173-73.044C60.1173-74.626 58.9361-75.7549 57.0123-75.7549L22.7227-75.7549C20.7954-75.7549 19.6177-74.626 19.6177-73.044C19.6177-72.2739 20.0151-71.4063 20.6807-70.4443C22.7246-67.5454 27.3145-64.023 30.7808-61.7436L29.6055-43.54C19.7998-40.2593 13.3965-32.5703 13.3965-24.1958Z"/>
   <path class="monochrome-1 multicolor-1:tintColor hierarchical-1:primary SFSymbolsPreviewWireframe" d="M71.784 14.3492C83.4226 14.3492 93.1336 4.72955 93.1336-6.99995C93.1336-18.7362 83.4746-28.3492 71.784-28.3492C60.0896-28.3492 50.3894-18.6908 50.3894-6.99995C50.3894 4.73985 60.0896 14.3492 71.784 14.3492Z"/>
   <path class="monochrome-2 multicolor-2:systemOrangeColor hierarchical-2:primary SFSymbolsPreviewWireframe" d="M71.784 11.2701C81.7476 11.2701 90.0536 3.06105 90.0536-6.99995C90.0536-17.0644 81.8026-25.2699 71.784-25.2699C61.7649-25.2699 53.4651-17.019 53.4651-6.99995C53.4651 3.06795 61.7649 11.2701 71.784 11.2701Z"/>
   <path class="monochrome-3 multicolor-3:white hierarchical-3:primary SFSymbolsPreviewWireframe" d="M71.4876-2.65865C70.5711-2.65865 69.9715-3.21285 69.9715-4.12935C69.9715-4.22355 69.9715-4.27245 69.9715-4.36325C69.9715-6.17235 70.7517-7.26025 72.7263-8.65575C74.7771-10.0717 76.3543-11.0346 76.3543-13.1908C76.3543-15.0712 74.7215-16.2782 72.2302-16.2782C70.2034-16.2782 68.6399-15.2279 67.8972-14.3036C67.3885-13.6621 67.0296-13.0204 66.137-13.0204C65.409-13.0204 64.8967-13.5326 64.8967-14.3936C64.8967-16.5195 68.1321-19.1117 72.1848-19.1117C76.6067-19.1117 79.2845-16.3388 79.2845-13.2987C79.2845-10.6347 77.9217-9.54345 75.7244-7.93205C73.7146-6.40035 73.1116-5.62595 72.9651-4.02145C72.9095-3.20945 72.3621-2.65865 71.4876-2.65865ZM71.4876 4.42045C70.1453 4.42045 69.0994 3.37115 69.0994 2.02885C69.0994 0.73545 70.1907-0.35935 71.4876-0.35935C72.7845-0.35935 73.9212 0.78085 73.8758 2.02885C73.8304 3.37115 72.739 4.42045 71.4876 4.42045Z"/>
  </g>
 </g>
</svg>
